<svg width="416" height="408" viewBox="0 0 416 408" fill="none" xmlns="http://www.w3.org/2000/svg">
<path d="M277.075 182.548C279.303 182.564 328.648 169.405 359.071 175.362C384.436 180.329 417.343 274.975 404.727 296C393.037 315.485 345.592 326.533 345.592 326.533L277.075 182.548Z" fill="white"/>
<path d="M277.076 182.549L288.212 205.951L345.597 326.533C345.597 326.533 368.602 321.177 386.518 311.338C394.333 307.057 401.172 301.92 404.727 296C417.344 274.976 384.437 180.326 359.069 175.361C328.647 169.405 279.306 182.564 277.076 182.549Z" fill="white"/>
<g opacity="0.35">
<path d="M288.21 205.951L345.595 326.533C345.595 326.533 345.61 326.533 345.632 326.527C345.738 326.499 346.074 326.42 346.622 326.284C346.728 326.256 346.85 326.227 346.979 326.191C347 326.191 347.021 326.184 347.051 326.176C347.165 326.148 347.293 326.112 347.421 326.083C347.727 325.998 348.076 325.913 348.46 325.813C348.554 325.785 348.654 325.764 348.752 325.734C348.845 325.713 348.93 325.685 349.022 325.662C349.137 325.626 349.258 325.598 349.379 325.562C350.612 325.235 352.114 324.814 353.817 324.315C354.023 324.258 354.238 324.194 354.451 324.13C355.092 323.937 355.762 323.739 356.453 323.524C356.68 323.452 356.916 323.382 357.15 323.31C357.42 323.231 357.699 323.139 357.983 323.053C358.326 322.938 358.674 322.832 359.031 322.717C359.138 322.689 359.237 322.653 359.337 322.617C359.594 322.532 359.85 322.453 360.113 322.368C360.847 322.126 361.595 321.884 362.358 321.627C362.379 321.62 362.407 321.605 362.436 321.599C362.963 321.42 363.505 321.235 364.046 321.044C364.06 321.044 364.073 321.037 364.088 321.029C364.479 320.893 364.872 320.759 365.27 320.617C365.519 320.532 365.769 320.438 366.025 320.347C366.973 320.004 367.942 319.656 368.918 319.286C369.545 319.05 370.178 318.801 370.82 318.552C371.396 318.331 371.981 318.097 372.565 317.861C373.149 317.626 373.734 317.383 374.325 317.141C374.909 316.892 375.5 316.642 376.091 316.393C376.682 316.136 377.267 315.881 377.851 315.617C378.442 315.353 379.027 315.09 379.611 314.811C379.618 314.818 379.618 314.818 379.618 314.811C380.202 314.541 380.787 314.263 381.363 313.985C381.947 313.7 382.523 313.415 383.101 313.13C383.195 313.088 383.286 313.037 383.372 312.994C383.856 312.745 384.341 312.495 384.817 312.246C385.387 311.947 385.95 311.64 386.513 311.334C394.329 307.053 401.167 301.916 404.723 295.996C411.305 285.025 405.492 254.006 394.82 226.145C398.695 243.315 399.507 258.332 395.332 265.291C393.872 267.727 391.855 270.029 389.44 272.195C386.62 274.724 383.591 276.818 380.428 278.478C368.816 244.773 343.482 203.419 326.15 202.029C316.126 201.231 304.357 202.649 292.951 204.943C291.367 205.268 289.779 205.602 288.21 205.951Z" fill="#371A45"/>
</g>
<g opacity="0.35">
<path d="M277.076 182.549L288.212 205.951C289.778 205.603 291.368 205.267 292.956 204.946L281.85 181.601C279.142 182.186 277.446 182.549 277.076 182.549Z" fill="#371A45"/>
</g>
<path d="M345.591 329.2C345.792 329.2 345.993 329.177 346.196 329.131C348.179 328.67 394.88 317.593 407.011 297.373C415.193 283.736 406.181 244.333 392.741 214.115C386.395 199.848 373.649 175.503 359.581 172.748C333.673 167.673 294.191 176.205 281.217 179.01C279.272 179.43 277.433 179.828 276.964 179.885C276.094 179.921 275.294 180.38 274.824 181.116C274.331 181.891 274.272 182.865 274.665 183.693L343.183 327.679C343.634 328.624 344.581 329.2 345.591 329.2ZM340.787 176.487C347.094 176.487 353.152 176.919 358.558 177.977C366.979 179.625 377.938 193.945 387.872 216.28C402.082 248.229 408.753 284.108 402.442 294.628C392.813 310.676 356.204 321.042 347.061 323.416L280.963 184.515C281.374 184.427 281.832 184.328 282.343 184.217C292.287 182.071 318.122 176.487 340.787 176.487ZM277.075 179.882C277.049 179.882 277.024 179.882 276.998 179.884C277.036 179.882 277.067 179.882 277.093 179.884C277.086 179.884 277.082 179.882 277.075 179.882Z" fill="#371A45"/>
<path d="M361.459 174.791C358.81 176.775 356.251 178.785 353.692 180.84C351.142 182.893 348.617 184.98 346.139 187.13C343.662 189.279 341.211 191.463 338.847 193.763C336.485 196.063 334.17 198.426 332.053 201.04C331.524 201.695 331.626 202.653 332.279 203.183C332.916 203.697 333.841 203.615 334.378 203.01L334.393 202.993C336.473 200.634 338.813 198.437 341.201 196.301C343.592 194.163 346.09 192.121 348.612 190.114C351.135 188.105 353.71 186.156 356.31 184.239C358.907 182.328 361.547 180.432 364.185 178.627L364.199 178.617C365.272 177.882 365.547 176.418 364.812 175.344C364.078 174.272 362.613 173.997 361.541 174.732C361.514 174.75 361.482 174.773 361.459 174.791Z" fill="#371A45"/>
<path d="M397.195 229.786L372.655 242.724C370.465 243.88 369.325 246.363 369.893 248.773C371.972 257.6 377.832 277.741 388.532 280.58C397.413 282.936 407.874 277.656 411.847 269.602C416.29 260.593 408.84 241.58 404.696 232.366C403.408 229.501 399.973 228.321 397.195 229.786Z" fill="white"/>
<g opacity="0.35">
<path d="M369.895 248.775C371.968 257.602 377.832 277.742 388.532 280.577C397.416 282.934 407.874 277.656 411.849 269.599C414.578 264.055 412.81 254.731 410.082 246.232C410.709 250.798 410.353 254.884 409.064 258.023C401.681 276.006 385.765 265.511 385.765 265.511C385.765 265.511 385.655 269.789 384.423 270.563C379.269 273.806 372.894 256.027 369.81 246.753C369.71 247.408 369.731 248.092 369.895 248.775Z" fill="#371A45"/>
</g>
<path d="M392.95 283.807C401.511 283.807 410.359 278.643 414.237 270.782C418.843 261.442 412.913 244.143 407.127 231.274C406.214 229.241 404.482 227.659 402.375 226.934C400.268 226.209 397.927 226.389 395.953 227.428L371.413 240.366C368.147 242.088 366.454 245.796 367.299 249.385C369.956 260.666 376.157 280.056 387.847 283.158C389.507 283.595 391.223 283.807 392.95 283.807ZM399.733 231.819C400.037 231.819 400.342 231.87 400.64 231.973C401.371 232.225 401.948 232.752 402.265 233.458C409.562 249.686 412.25 262.757 409.455 268.421C405.921 275.588 396.653 279.976 389.214 278.001C382.735 276.283 376.483 265.127 372.486 248.16C372.198 246.936 372.778 245.669 373.898 245.079L398.438 232.141C398.845 231.929 399.287 231.819 399.733 231.819Z" fill="#371A45"/>
<path d="M402.791 276.323C402.658 276.327 402.256 276.287 401.959 276.24C401.633 276.188 401.304 276.129 400.97 276.042C400.306 275.886 399.633 275.678 398.975 275.423C397.662 274.906 396.357 274.279 395.157 273.452C392.718 271.864 390.55 269.755 388.728 267.341C387.843 266.113 386.963 264.867 386.219 263.525C385.415 262.23 384.722 260.796 384.026 259.412C383.34 258.013 382.705 256.59 382.147 255.144C381.874 254.421 381.607 253.692 381.383 252.959C381.162 252.24 380.95 251.451 380.85 250.796L380.839 250.718C380.78 250.335 380.423 250.071 380.04 250.128C379.675 250.184 379.42 250.513 379.446 250.873C379.577 252.64 379.988 254.144 380.422 255.724C380.872 257.277 381.399 258.802 381.978 260.301C382.578 261.802 383.137 263.282 383.876 264.751C384.544 266.244 385.367 267.667 386.219 269.084C387.977 271.884 390.185 274.478 392.881 276.595C394.206 277.681 395.696 278.583 397.264 279.362C398.051 279.748 398.87 280.086 399.725 280.367C400.147 280.514 400.587 280.637 401.036 280.75C401.514 280.862 401.892 280.955 402.549 281.024L402.607 281.03C403.904 281.169 405.066 280.231 405.206 278.936C405.345 277.64 404.407 276.477 403.112 276.338C403.004 276.325 402.889 276.322 402.791 276.323Z" fill="#371A45"/>
<path d="M327.253 353.882C327.253 353.882 229.943 329.347 141.892 348.151V303.339L308.676 253.451L327.253 353.882Z" fill="white"/>
<g opacity="0.35">
<path d="M141.888 325.63V348.149C229.943 329.349 327.25 353.884 327.25 353.884L322.897 330.339C303.072 325.901 218.936 309.173 141.888 325.63Z" fill="#371A45"/>
</g>
<path d="M327.253 356.235C327.844 356.235 328.422 356.013 328.863 355.598C329.447 355.05 329.712 354.243 329.567 353.454L310.989 253.024C310.868 252.368 310.472 251.793 309.902 251.445C309.332 251.096 308.64 251.008 308.001 251.197L141.219 301.085C140.223 301.383 139.541 302.299 139.541 303.339V348.151C139.541 348.862 139.862 349.533 140.413 349.98C140.967 350.427 141.692 350.599 142.384 350.451C228.866 331.983 325.711 355.919 326.679 356.163C326.869 356.212 327.062 356.235 327.253 356.235ZM306.839 256.459L324.285 350.774C306.15 346.696 221.644 329.58 144.244 345.258V305.092L306.839 256.459Z" fill="#371A45"/>
<path d="M112.658 334.342C117.039 351.44 137.407 356.399 148.171 352.758C158.822 349.16 166.914 331.913 166.914 331.913C166.914 331.913 192.034 330.723 215.194 301.45C215.892 300.566 216.576 299.669 217.245 298.757C235.119 274.349 241.168 241.293 242.792 229.866C243.162 227.258 243.305 225.777 243.305 225.777L209.124 216.871L199.442 214.348C199.193 219.691 198.409 224.663 197.184 229.28C186.242 270.492 140.199 283.708 127.076 286.622C112.488 289.867 108.028 316.275 112.658 334.342Z" fill="white"/>
<g opacity="0.35">
<path d="M112.658 334.342C117.039 351.44 137.407 356.399 148.171 352.758C158.822 349.16 166.914 331.913 166.914 331.913C166.914 331.913 192.034 330.723 215.194 301.45C215.892 300.566 216.576 299.669 217.245 298.757C235.119 274.349 241.168 241.293 242.792 229.866C243.162 227.258 243.305 225.777 243.305 225.777L238.318 224.48C234.522 238.857 228.039 256.746 217.245 271.484C216.576 272.396 215.892 273.293 215.194 274.177C192.034 303.45 166.914 304.641 166.914 304.641C166.914 304.641 158.821 321.887 148.171 325.486C137.407 329.127 117.039 324.168 112.658 307.07C112.565 306.713 112.479 306.351 112.401 305.988C110.307 315.036 110.428 325.651 112.658 334.342Z" fill="#371A45"/>
</g>
<path d="M140.698 356.541C143.673 356.541 146.518 356.13 149.023 355.284C158.873 351.956 166.391 338.771 168.645 334.421C174.724 333.645 196.718 329.102 217.29 303.103C241.252 272.82 245.778 227.929 245.959 226.032C246.098 224.567 245.024 223.265 243.559 223.126C242.1 222.982 240.792 224.059 240.651 225.524C240.609 225.973 236.077 270.766 213.109 299.795C191.063 327.655 167.024 329.236 166.784 329.249C165.803 329.302 164.924 329.889 164.505 330.777C164.428 330.939 156.756 347.041 147.315 350.232C141.494 352.2 132.927 351.132 126.483 347.637C122.422 345.433 117.173 341.225 115.24 333.679C111.956 320.87 113.557 305.081 119.049 296.136C121.407 292.295 124.303 289.97 127.657 289.225C134.667 287.667 152.76 282.808 169.323 271.358C189.985 257.076 201.015 237.938 202.109 214.474C202.178 213.004 201.042 211.756 199.57 211.688C198.106 211.616 196.852 212.755 196.783 214.227C194.418 265.019 142.389 280.49 126.5 284.021C121.75 285.077 117.602 288.302 114.505 293.348C108.328 303.409 106.465 320.928 110.075 335.004C111.984 342.451 116.779 348.439 123.941 352.324C129.021 355.079 135.086 356.541 140.698 356.541Z" fill="#371A45"/>
<path d="M206.625 196.748C207.58 203.245 208.413 210.034 209.125 216.872C209.638 221.731 210.086 226.618 210.494 231.462C213.378 266.321 213.657 298.621 213.657 298.621L217.247 298.757L308.086 302.168C300.136 314.686 300.334 328.82 300.334 328.82L311.919 400.047C311.919 400.047 321.109 408.148 335.891 396.457C342.337 391.362 341.719 378.39 357.626 371.287C389.443 357.082 382.34 303.801 374.924 284.187C372.095 276.464 368.711 268.985 364.951 261.788C361.097 254.4 356.844 247.326 352.384 240.615C337.709 218.531 320.788 200.428 308.371 188.48C297.884 178.386 290.604 172.686 290.604 172.686C290.604 172.686 203.669 176.672 206.625 196.748Z" fill="white"/>
<g opacity="0.35">
<path d="M300.336 328.822L311.92 400.049C311.92 400.049 321.111 408.149 335.892 396.458C342.339 391.364 341.72 378.391 357.628 371.288C378.815 361.827 382.748 335.033 380.809 312.4C379.143 329.035 372.815 344.623 357.628 351.248C346.371 356.156 344.656 375.613 331.682 359.242C319.985 344.474 311.919 380.009 311.919 380.009L301.767 317.601C300.272 324.055 300.336 328.822 300.336 328.822Z" fill="#371A45"/>
</g>
<path d="M361.962 301.356C360.819 299.709 359.588 298.198 358.265 296.73C356.949 295.263 355.549 293.863 354.071 292.536C352.606 291.19 351.021 289.97 349.379 288.803L348.13 287.947L346.833 287.15C346.414 286.878 345.92 286.645 345.463 286.395C345.003 286.136 344.523 285.918 344.039 285.707C336.305 282.176 326.848 282.872 319.492 287.174C312.24 291.334 306.638 297.925 303.111 305.274C301.348 308.959 300.045 312.821 299.138 316.752C298.683 318.718 298.339 320.705 298.074 322.704C297.941 323.704 297.837 324.708 297.761 325.721C297.686 326.754 297.63 327.705 297.632 328.858C297.632 328.979 297.642 329.099 297.66 329.216L297.666 329.254L303.498 364.863L309.288 400.478L309.3 400.543C309.399 401.155 309.717 401.681 310.157 402.051C310.703 402.508 311.035 402.706 311.465 402.989C311.876 403.22 312.284 403.478 312.706 403.667C313.126 403.871 313.546 404.073 313.98 404.227C314.409 404.395 314.84 404.562 315.283 404.677C316.159 404.962 317.059 405.111 317.957 405.271C318.857 405.34 319.766 405.481 320.661 405.425C324.269 405.391 327.705 404.362 330.741 402.868L331.89 402.313L332.97 401.668C333.676 401.223 334.437 400.836 335.094 400.337L337.102 398.878C337.273 398.75 337.431 398.649 337.608 398.498L338.15 398.007C338.492 397.672 338.902 397.357 339.18 396.992C340.463 395.575 341.315 394.067 342.135 392.613C342.894 391.171 343.585 389.737 344.26 388.393C345.614 385.678 347.035 383.18 348.839 381.019C350.628 378.852 352.792 377.043 355.227 375.582L356.129 375.019L357.091 374.539L359.062 373.552L361.302 372.426C362.06 372.071 362.736 371.565 363.456 371.139L364.521 370.47C364.871 370.24 365.192 369.97 365.529 369.722C366.189 369.206 366.876 368.721 367.508 368.173L369.355 366.472C369.975 365.909 370.498 365.256 371.072 364.65C373.276 362.152 375.209 359.416 376.712 356.492C378.231 353.58 379.524 350.558 380.456 347.452C381.415 344.356 382.177 341.21 382.678 338.04C382.977 336.461 383.131 334.868 383.345 333.281C383.481 331.69 383.665 330.1 383.727 328.509C384.107 322.143 383.858 315.784 383.205 309.485C382.517 303.187 381.435 296.939 379.791 290.782C378.981 287.724 377.974 284.594 376.809 281.678L375.103 277.281L373.243 272.943C370.694 267.192 367.944 261.527 364.871 256.05C358.805 245.048 351.817 234.599 344.247 224.626C336.651 214.669 328.477 205.17 319.803 196.16C315.47 191.651 311.022 187.254 306.443 182.991C301.849 178.72 297.218 174.588 292.251 170.597C291.738 170.184 291.115 169.999 290.506 170.032L290.486 170.033C282.325 170.461 274.264 171.135 266.175 172.004C258.098 172.885 250.032 173.972 241.999 175.451C237.983 176.19 233.975 177.035 229.987 178.05C225.999 179.07 222.028 180.244 218.112 181.809C216.155 182.595 214.212 183.479 212.311 184.563C210.416 185.646 208.536 186.931 206.868 188.734C206.053 189.656 205.264 190.679 204.717 191.949C204.164 193.202 203.861 194.642 203.903 196.057L203.988 197.106L204.09 197.861L204.295 199.352L204.702 202.333C205.28 206.303 205.685 210.304 206.171 214.291C206.567 218.292 207.022 222.285 207.354 226.295C208.111 234.304 208.648 242.341 209.063 250.382C209.447 258.427 209.787 266.471 210.321 274.513C210.845 282.554 211.496 290.596 212.768 298.635C212.845 299.125 213.304 299.461 213.793 299.385C214.192 299.323 214.49 299.002 214.544 298.621C215.106 294.564 215.389 290.514 215.556 286.46C215.726 282.407 215.769 278.357 215.713 274.308C215.618 266.21 215.207 258.121 214.587 250.045C213.389 233.892 212.197 217.727 209.985 201.623L209.573 198.604L209.366 197.095L209.265 196.348C209.26 196.194 209.248 196.04 209.23 195.888C209.221 195.284 209.335 194.708 209.591 194.11C209.833 193.513 210.293 192.912 210.807 192.326C211.883 191.155 213.353 190.098 214.96 189.189C216.566 188.272 218.305 187.475 220.096 186.758C223.681 185.322 227.469 184.198 231.303 183.217C235.141 182.24 239.042 181.416 242.966 180.693C250.819 179.247 258.772 178.173 266.748 177.304C274.718 176.446 282.759 175.775 290.727 175.359L288.962 174.794C293.67 178.577 298.313 182.709 302.805 186.891C307.311 191.085 311.691 195.417 315.959 199.855C324.502 208.728 332.545 218.076 340.003 227.854C347.439 237.647 354.284 247.889 360.203 258.628C363.204 263.977 365.881 269.492 368.359 275.083L370.167 279.298L371.827 283.581C372.965 286.431 373.855 289.219 374.639 292.157C376.198 297.994 377.242 304.012 377.9 310.048C378.527 316.089 378.763 322.174 378.401 328.2C378.344 329.711 378.167 331.204 378.041 332.705C377.837 334.192 377.696 335.693 377.414 337.161C376.948 340.123 376.242 343.024 375.366 345.853C374.517 348.695 373.348 351.402 372.002 353.986C370.673 356.585 368.983 358.951 367.089 361.102C366.595 361.619 366.151 362.191 365.617 362.667L364.041 364.119C363.502 364.588 362.913 364.992 362.353 365.436C362.066 365.647 361.796 365.883 361.497 366.076L360.588 366.642C359.973 367.002 359.405 367.444 358.751 367.742L356.834 368.708L354.644 369.803L353.526 370.367L352.45 371.031C349.569 372.758 346.902 374.988 344.738 377.611C342.556 380.222 340.905 383.169 339.494 386.001C338.777 387.43 338.121 388.79 337.435 390.095C336.736 391.338 336.03 392.544 335.216 393.427C335.03 393.689 334.792 393.828 334.588 394.041L334.274 394.339C334.156 394.44 333.989 394.55 333.848 394.654L332.091 395.931C331.515 396.377 330.877 396.683 330.274 397.069L329.359 397.623L328.409 398.074C325.898 399.317 323.23 400.072 320.62 400.098C319.964 400.152 319.328 400.027 318.683 399.995C318.055 399.872 317.421 399.779 316.819 399.577C316.508 399.504 316.218 399.384 315.925 399.269C315.625 399.168 315.347 399.03 315.069 398.895C314.779 398.772 314.535 398.603 314.267 398.461C314.047 398.322 313.726 398.097 313.677 398.055L314.547 399.626L308.756 364.011L303.007 328.39L303.041 328.786C303.044 328.013 303.1 327.041 303.174 326.155C303.249 325.248 303.349 324.338 303.476 323.431C303.724 321.615 304.076 319.81 304.509 318.03C305.384 314.473 306.61 311.014 308.216 307.772C309.023 306.155 309.912 304.586 310.896 303.083C311.901 301.597 312.99 300.176 314.17 298.838C315.378 297.529 316.639 296.268 318.017 295.144C318.69 294.562 319.41 294.037 320.121 293.503C320.858 293.012 321.591 292.465 322.329 292.056C323.809 291.183 325.373 290.455 327.002 289.903C328.635 289.368 330.328 289.013 332.041 288.849C333.753 288.687 335.485 288.682 337.201 288.895C338.913 289.122 340.601 289.538 342.24 290.118C342.651 290.26 343.061 290.407 343.456 290.596C343.855 290.781 344.253 290.922 344.661 291.146C345.473 291.557 346.29 291.968 347.089 292.424C348.691 293.328 350.256 294.332 351.795 295.396C354.844 297.548 357.83 299.942 360.591 302.501L360.618 302.525C360.978 302.859 361.543 302.838 361.878 302.478C362.173 302.159 362.196 301.694 361.962 301.356Z" fill="#371A45"/>
<path d="M166.918 334.267C167.863 334.267 168.755 333.694 169.115 332.759C170.38 329.487 173.507 323.853 176.506 322.671C177.716 322.195 178.309 320.83 177.832 319.62C177.356 318.412 175.991 317.817 174.781 318.294C168.892 320.614 165.132 330.006 164.723 331.068C164.256 332.281 164.86 333.642 166.073 334.11C166.35 334.216 166.636 334.267 166.918 334.267Z" fill="#371A45"/>
<path d="M245.282 334.267C246.227 334.267 247.119 333.694 247.479 332.759C248.745 329.487 251.872 323.853 254.871 322.671C256.08 322.195 256.673 320.83 256.197 319.62C255.72 318.412 254.355 317.817 253.145 318.294C247.257 320.614 243.496 330.006 243.087 331.068C242.62 332.281 243.224 333.642 244.437 334.11C244.716 334.216 245.002 334.267 245.282 334.267Z" fill="#371A45"/>
<path d="M207.881 278.54C201.891 278.54 197.036 273.684 197.036 267.695C197.036 261.705 201.891 256.849 207.881 256.849C213.871 256.849 218.727 261.705 218.727 267.695C218.727 273.684 213.871 278.54 207.881 278.54Z" fill="white"/>
<g opacity="0.35">
<path d="M197.037 267.696C197.037 273.68 201.896 278.539 207.88 278.539C213.872 278.539 218.73 273.68 218.73 267.696C218.73 265.303 217.954 263.094 216.643 261.307C215.631 266.251 211.257 269.97 206.014 269.97C202.423 269.97 199.231 268.218 197.258 265.517C197.114 266.223 197.037 266.948 197.037 267.696Z" fill="#371A45"/>
</g>
<path d="M207.881 280.893C215.158 280.893 221.08 274.973 221.08 267.695C221.08 260.416 215.16 254.497 207.881 254.497C200.604 254.497 194.683 260.416 194.683 267.695C194.683 274.973 200.604 280.893 207.881 280.893ZM207.881 259.202C212.563 259.202 216.373 263.011 216.373 267.693C216.373 272.375 212.563 276.185 207.881 276.185C203.199 276.185 199.39 272.375 199.39 267.693C199.39 263.011 203.199 259.202 207.881 259.202Z" fill="#371A45"/>
<path d="M207.032 245.148L208.171 264.361L209.055 279.308C209.297 283.368 212.624 286.554 216.699 286.603C219.32 286.639 222.569 286.645 226.295 286.582C239.553 286.354 258.91 285.234 277.838 281.331C281.906 280.491 284.578 276.579 283.908 272.476L277.518 233.571C276.798 229.19 272.56 226.304 268.221 227.245C255.098 230.095 228.903 235.53 214.007 236.969C209.861 237.369 206.783 240.988 207.032 245.148Z" fill="white"/>
<path d="M268.806 227.145L284.511 225.857C287.953 225.575 291.033 227.993 291.575 231.405L297.714 270.039C298.249 273.408 296.132 276.629 292.827 277.474L278.774 281.071L268.806 227.145Z" fill="white"/>
<path d="M220.683 288.983C234.104 288.983 256.434 288.155 278.317 283.638C283.636 282.54 287.112 277.471 286.229 272.097L279.84 233.189C279.386 230.428 277.862 228.039 275.547 226.466C273.234 224.893 270.456 224.352 267.722 224.945C253.848 227.954 228.389 233.214 213.781 234.625C208.358 235.149 204.362 239.831 204.684 245.284L206.708 279.444C207.02 284.712 211.395 288.89 216.668 288.957C217.894 288.974 219.238 288.983 220.683 288.983ZM269.878 229.421C270.947 229.421 271.992 229.74 272.9 230.359C274.138 231.2 274.953 232.477 275.195 233.954L281.585 272.861C282.058 275.736 280.203 278.445 277.366 279.031C253.56 283.944 229.154 284.413 216.727 284.254C213.909 284.218 211.571 281.983 211.404 279.167L209.381 245.009C209.209 242.094 211.341 239.592 214.233 239.312C229.08 237.878 254.743 232.579 268.719 229.547C269.104 229.462 269.493 229.421 269.878 229.421Z" fill="#371A45"/>
<path d="M278.774 283.425C278.968 283.425 279.164 283.401 279.359 283.352L293.41 279.753C297.917 278.599 300.766 274.262 300.037 269.669L293.898 231.035C293.166 226.436 288.954 223.133 284.318 223.512L268.613 224.799C267.318 224.906 266.354 226.042 266.46 227.337C266.567 228.632 267.704 229.601 268.998 229.489L284.702 228.203C286.911 228.026 288.903 229.591 289.25 231.775L295.389 270.409C295.736 272.591 294.382 274.649 292.243 275.197L278.192 278.796C276.933 279.118 276.173 280.4 276.496 281.659C276.769 282.72 277.725 283.425 278.774 283.425Z" fill="#371A45"/>
<g opacity="0.35">
<path d="M283.772 274.23C284.435 283.427 289.728 289.091 315.532 285.971C339.712 283.05 360.627 275.263 364.953 261.791C361.099 254.403 356.846 247.329 352.386 240.619C351.154 240.746 349.972 241.103 348.917 241.701C342.092 245.554 330.344 258.841 290.671 260.716C290.669 260.716 283.103 265.039 283.772 274.23Z" fill="#371A45"/>
</g>
<path d="M290.666 252.17C290.666 252.17 283.102 256.492 283.77 265.684C284.438 274.876 289.733 280.542 315.533 277.422C341.334 274.302 363.418 265.651 365.604 250.456C367.789 235.26 355.744 229.305 348.919 233.153C342.09 237.004 330.341 250.294 290.666 252.17Z" fill="white"/>
<g opacity="0.35">
<path d="M283.908 267.056C285.026 275.426 291.039 280.385 315.532 277.422C341.336 274.302 363.42 265.653 365.601 250.457C366.876 241.594 363.307 235.874 358.761 233.409C359.26 235.653 359.367 238.246 358.946 241.188C356.765 256.384 334.681 265.032 308.877 268.153C296.283 269.677 288.574 269.107 283.908 267.056Z" fill="#371A45"/>
</g>
<path d="M302.982 280.958C306.692 280.958 310.958 280.659 315.853 280.066C347.017 276.297 366.11 265.643 368.24 250.834C369.425 242.59 366.911 235.676 361.343 231.867C357.07 228.943 351.677 228.537 347.608 230.832C346.391 231.518 345.099 232.428 343.603 233.482C336.42 238.546 323.049 247.971 290.54 249.506C290.119 249.526 289.71 249.645 289.343 249.855C288.975 250.065 280.331 255.133 281.11 265.876C281.333 268.957 282.083 273.424 285.999 276.649C289.518 279.549 294.942 280.958 302.982 280.958ZM353.422 234.674C355.061 234.674 356.797 235.215 358.334 236.266C362.163 238.885 363.851 243.919 362.965 250.076C361.231 262.135 343.381 271.368 315.214 274.775C301.658 276.414 293.21 275.682 289.389 272.535C287.588 271.052 286.675 268.88 286.429 265.491C285.981 259.299 290.095 255.809 291.517 254.796C325.053 253.078 339.104 243.177 346.676 237.84C348.054 236.868 349.245 236.03 350.227 235.475C351.178 234.938 352.277 234.674 353.422 234.674Z" fill="#371A45"/>
<g opacity="0.35">
<path d="M208.171 264.363L209.055 279.31C209.297 283.37 212.624 286.556 216.699 286.605C219.32 286.641 222.569 286.647 226.295 286.583C228.767 283.776 230.242 278.783 229.894 273.275C229.381 265.175 225.107 259.049 220.354 259.589C217.682 259.895 214.669 260.223 213.744 260.337C213.701 260.352 213.659 260.352 213.616 260.352C213.559 260.359 213.51 260.359 213.452 260.367C211.363 260.601 209.525 262.083 208.171 264.363Z" fill="#371A45"/>
</g>
<g opacity="0.35">
<path d="M213.451 265.745C213.508 265.738 213.557 265.738 213.614 265.73C213.508 265.738 213.451 265.745 213.451 265.745Z" fill="#371A45"/>
</g>
<path d="M246.054 288.291C246.155 288.291 246.258 288.284 246.361 288.271C247.65 288.103 248.558 286.922 248.39 285.634L245.756 265.457L254.658 256.623C255.172 256.112 255.424 255.392 255.338 254.673L252.466 230.736C252.312 229.446 251.137 228.534 249.85 228.679C248.56 228.835 247.64 230.005 247.794 231.295L250.53 254.09L241.616 262.934C241.095 263.451 240.844 264.181 240.939 264.908L243.724 286.241C243.88 287.427 244.89 288.291 246.054 288.291Z" fill="#371A45"/>
<g opacity="0.35">
<path d="M197.186 229.284C200.734 230.096 204.282 230.716 207.823 231.158C208.713 231.273 209.604 231.379 210.494 231.464C214.477 231.87 218.452 232.049 222.385 232.013C228.204 231.963 233.969 231.435 239.618 230.467C240.679 230.282 241.742 230.082 242.796 229.868C243.786 229.668 244.769 229.455 245.752 229.234C270.587 223.478 292.907 209.11 308.373 188.484C297.886 178.389 290.606 172.689 290.606 172.689C290.606 172.689 203.671 176.672 206.626 196.748C207.58 203.245 208.414 210.035 209.126 216.873L199.444 214.35C199.195 219.695 198.411 224.667 197.186 229.284Z" fill="#371A45"/>
</g>
<path d="M128.13 174.473C138.645 189.314 152.911 201.589 170.06 209.727C173.557 211.383 177.163 212.871 180.883 214.171C182.69 214.808 184.537 215.396 186.408 215.952C192.054 217.598 197.723 218.763 203.381 219.471C208.256 220.091 213.125 220.364 217.945 220.322C223.765 220.273 229.526 219.746 235.177 218.78C237.236 218.421 239.281 218.009 241.308 217.544C278.409 208.947 309.902 181.108 321.313 141.944C338.132 84.2545 304.994 23.8588 247.313 7.03761C236.202 3.80598 224.979 2.40791 213.998 2.7075C212.714 2.73042 211.426 2.79099 210.141 2.87775C206.703 3.0873 203.293 3.45892 199.922 3.99098C192.126 5.22371 184.53 7.3061 177.268 10.1546C170.004 12.9934 163.059 16.6114 156.578 20.9251C154.517 22.2954 152.5 23.7327 150.529 25.2487C147.579 27.521 144.737 29.934 142.019 32.5174C128.451 45.3358 118.007 61.8263 112.409 81.0458C102.731 114.23 109.589 148.304 128.13 174.473Z" fill="white"/>
<path d="M216.979 220.592C217.301 220.592 217.624 220.59 217.946 220.587C223.683 220.54 229.495 220.019 235.221 219.042C237.276 218.683 239.343 218.267 241.367 217.802C279.814 208.893 310.546 179.855 321.568 142.016C338.401 84.2824 305.123 23.6149 247.386 6.77739C236.431 3.58996 225.189 2.13294 213.988 2.43581C212.76 2.45709 211.493 2.51276 210.12 2.60607C206.69 2.81562 203.242 3.19214 199.878 3.72256C192.139 4.94711 184.497 7.02623 177.166 9.90097C169.903 12.7413 162.924 16.3724 156.426 20.6976C154.337 22.0859 152.297 23.5445 150.362 25.031C147.347 27.3524 144.477 29.8048 141.831 32.3177C127.829 45.5455 117.565 62.3683 112.147 80.9657C102.772 113.118 108.516 147.255 127.908 174.624C138.659 189.797 153.194 202.018 169.942 209.964C173.486 211.644 177.137 213.143 180.791 214.42C182.466 215.011 184.278 215.594 186.329 216.205C191.912 217.832 197.637 219.019 203.347 219.731C207.819 220.304 212.4 220.592 216.979 220.592ZM216.904 2.93512C227.091 2.93512 237.282 4.39868 247.239 7.29471C304.691 24.0488 337.805 84.4183 321.056 141.867C310.087 179.519 279.506 208.415 241.247 217.28C239.234 217.742 237.174 218.158 235.131 218.513C229.434 219.485 223.652 220.003 217.943 220.05C213.066 220.088 208.178 219.808 203.416 219.2C197.733 218.49 192.036 217.31 186.483 215.692C184.442 215.085 182.639 214.504 180.971 213.916C177.335 212.646 173.702 211.154 170.176 209.483C153.512 201.576 139.048 189.415 128.35 174.318C109.053 147.083 103.337 113.113 112.666 81.1196C118.057 62.6138 128.271 45.8729 142.205 32.7106C144.837 30.2091 147.694 27.7699 150.695 25.4599C152.62 23.9784 154.65 22.5279 156.727 21.1478C163.194 16.8455 170.138 13.2308 177.366 10.4052C184.661 7.54355 192.265 5.47589 199.965 4.25626C203.312 3.72748 206.742 3.35422 210.157 3.14467C211.522 3.05136 212.78 2.9957 214.003 2.97442C214.969 2.94822 215.936 2.93512 216.904 2.93512Z" fill="#371A45"/>
<g opacity="0.35">
<path d="M321.311 141.939C309.905 181.107 278.406 208.949 241.305 217.539C239.276 218.007 237.235 218.42 235.177 218.775C229.526 219.742 223.765 220.266 217.945 220.319C213.124 220.358 208.255 220.088 203.383 219.467C197.722 218.762 192.054 217.596 186.404 215.951C184.537 215.388 182.69 214.806 180.879 214.171C177.16 212.87 173.557 211.375 170.058 209.72C152.909 201.582 138.642 189.312 128.127 174.467C122.35 166.316 117.704 157.39 114.341 147.965C124.699 161.899 138.436 173.422 154.795 181.187C158.292 182.852 161.897 184.335 165.617 185.637C167.421 186.274 169.267 186.856 171.142 187.416C176.793 189.062 182.459 190.227 188.115 190.936C192.992 191.553 197.858 191.825 202.677 191.787C208.497 191.735 214.263 191.208 219.909 190.244C221.972 189.883 224.015 189.471 226.042 189.003C263.143 180.411 294.636 152.574 306.048 113.403C312.711 90.5542 311.529 67.2828 304.097 46.4655C323.762 72.8932 331.242 107.889 321.311 141.939Z" fill="#371A45"/>
</g>
<path d="M216.98 222.39C217.308 222.39 217.635 222.388 217.964 222.385C223.796 222.335 229.706 221.807 235.525 220.813C237.618 220.45 239.716 220.026 241.771 219.554C280.855 210.498 312.092 180.979 323.297 142.519C340.406 83.8338 306.58 22.1661 247.892 5.05185C236.755 1.81204 225.334 0.325551 213.942 0.639873C212.699 0.661155 211.404 0.718453 210.001 0.813405C206.526 1.02623 203.022 1.40767 199.601 1.94791C191.733 3.19211 183.965 5.3056 176.513 8.22945C169.131 11.114 162.038 14.8073 155.432 19.2029C153.31 20.6124 151.236 22.0957 149.268 23.6083C146.202 25.969 143.285 28.4623 140.595 31.0178C126.365 44.4617 115.931 61.5628 110.423 80.4663C100.894 113.148 106.732 147.848 126.444 175.667C137.373 191.09 152.148 203.514 169.174 211.591C172.777 213.299 176.487 214.823 180.2 216.119C181.897 216.719 183.737 217.311 185.818 217.93C191.501 219.585 197.32 220.792 203.126 221.517C207.667 222.096 212.324 222.39 216.98 222.39ZM216.892 4.73261C226.922 4.73261 236.943 6.17162 246.736 9.02017C303.236 25.4959 335.801 84.8652 319.328 141.363C308.542 178.393 278.466 206.811 240.841 215.528C238.862 215.982 236.835 216.391 234.821 216.742C229.226 217.696 223.539 218.205 217.927 218.253C213.128 218.297 208.323 218.014 203.641 217.418C198.049 216.719 192.447 215.558 186.984 213.967C184.982 213.371 183.205 212.799 181.567 212.222C177.985 210.971 174.413 209.504 170.942 207.859C154.556 200.082 140.333 188.125 129.813 173.278C110.836 146.494 105.213 113.087 114.388 81.6221C119.689 63.4225 129.735 46.9599 143.434 34.017C146.025 31.5548 148.833 29.1565 151.786 26.8825C153.677 25.4272 155.674 24.0012 157.717 22.6424C164.078 18.4106 170.908 14.8548 178.016 12.0766C185.191 9.26246 192.668 7.22755 200.241 6.02919C203.532 5.51023 206.904 5.14189 210.262 4.93725C211.609 4.84557 212.837 4.79155 214.03 4.77026C214.986 4.74571 215.941 4.73261 216.892 4.73261Z" fill="#371A45"/>
<path d="M216.981 222.989C217.31 222.989 217.639 222.987 217.969 222.984C223.833 222.935 229.774 222.403 235.625 221.404C237.729 221.037 239.839 220.612 241.904 220.139C281.199 211.033 312.607 181.356 323.871 142.686C341.074 83.6832 307.065 21.6831 248.059 4.47557C236.863 1.21939 225.382 -0.272014 213.924 0.0406718C212.678 0.061954 211.373 0.120891 209.959 0.215842C206.469 0.428665 202.946 0.813388 199.505 1.3569C191.594 2.60928 183.784 4.7326 176.292 7.67119C168.871 10.5721 161.74 14.285 155.098 18.7036C152.965 20.1213 150.879 21.6111 148.902 23.1336C145.819 25.5073 142.886 28.0121 140.181 30.584C125.874 44.0999 115.384 61.2927 109.847 80.2993C100.265 113.158 106.136 148.044 125.953 176.014C136.941 191.522 151.798 204.011 168.914 212.133C172.537 213.85 176.266 215.381 179.999 216.686C181.704 217.287 183.554 217.883 185.643 218.505C191.36 220.171 197.211 221.383 203.047 222.113C207.616 222.694 212.3 222.989 216.981 222.989ZM216.889 5.33177C226.867 5.33177 236.83 6.7626 246.568 9.59478C302.75 25.9788 335.133 85.0142 318.752 141.196C308.026 178.016 278.12 206.276 240.705 214.946C238.738 215.397 236.721 215.803 234.718 216.152C229.156 217.102 223.503 217.608 217.922 217.655C213.153 217.696 208.373 217.418 203.718 216.825C198.156 216.129 192.585 214.975 187.153 213.392C185.162 212.799 183.397 212.231 181.767 211.657C178.203 210.413 174.65 208.954 171.199 207.317C154.907 199.586 140.764 187.695 130.303 172.931C111.432 146.297 105.841 113.077 114.965 81.7891C120.236 63.691 130.224 47.3217 143.848 34.4508C146.425 32.0017 149.218 29.6165 152.153 27.3573C154.034 25.9101 156.018 24.4924 158.052 23.1417C164.377 18.9328 171.168 15.3983 178.237 12.6349C185.373 9.83542 192.809 7.81197 200.338 6.6218C203.61 6.10448 206.963 5.7394 210.303 5.53477C211.644 5.44473 212.862 5.3907 214.044 5.36942C214.993 5.34486 215.943 5.33177 216.889 5.33177Z" fill="#371A45"/>
<path d="M147.034 194.968C215.651 231.556 297.933 189.643 293.269 112.765C290.095 60.4611 236.436 23.1877 186.396 29.4529C149.978 34.0122 116.417 54.3957 108.042 112.853C108.042 112.853 108.33 139.304 117.502 155.832C126.675 172.358 138.385 186.884 138.385 186.884L147.034 194.968Z" fill="#371A45"/>
<path d="M293.266 112.766C297.932 189.641 215.648 231.554 147.034 194.971L145.282 193.331C216.414 197.36 280.771 147.299 277.501 69.483C286.503 81.9151 292.284 96.626 293.266 112.766Z" fill="#220F2D"/>
<path d="M203.381 222.134C203.411 222.134 203.44 222.134 203.471 222.132C234.042 221.106 262.623 208.379 281.883 187.215C300.305 166.972 309.115 140.934 307.358 111.915C305.739 85.2171 292.608 60.3545 270.383 41.9028C246.193 21.8238 213.988 12.0585 184.242 15.7829C167.54 17.8735 152.865 22.739 140.628 30.2418C140.471 30.3384 140.323 30.4497 140.191 30.5774C125.879 44.0982 115.389 61.2909 109.852 80.2976C100.27 113.156 106.141 148.042 125.958 176.012C136.946 191.52 151.803 204.01 168.919 212.131C172.542 213.849 176.271 215.379 180.003 216.684C181.709 217.285 183.559 217.881 185.648 218.503C191.365 220.17 197.216 221.381 203.052 222.111C203.162 222.127 203.271 222.134 203.381 222.134ZM196.915 20.3324C221.666 20.3324 247.133 29.5313 266.977 46.0054C288.058 63.5043 300.508 87.0261 302.037 112.237C303.706 139.786 295.374 164.472 277.941 183.626C259.686 203.684 232.566 215.767 203.502 216.797C198.016 216.1 192.516 214.955 187.153 213.392C185.162 212.799 183.397 212.231 181.767 211.657C178.203 210.412 174.65 208.954 171.199 207.317C154.907 199.586 140.764 187.694 130.303 172.931C111.432 146.297 105.841 113.077 114.965 81.789C120.21 63.781 130.126 47.4837 143.647 34.6423C155.187 27.6191 169.066 23.0549 184.902 21.0724C188.868 20.5763 192.882 20.3324 196.915 20.3324Z" fill="#371A45"/>
<path d="M199.737 211.031C219.354 211.031 238.513 205.737 254.94 195.189C283.078 177.122 298.017 147.022 295.929 112.604C294.484 88.7696 282.762 66.5755 262.925 50.1096C241.345 32.1948 212.614 23.4838 186.065 26.8088C139.857 32.5943 112.719 61.417 105.402 112.476C105.383 112.612 105.375 112.748 105.376 112.884C105.388 113.992 105.78 140.204 115.173 157.127C124.352 173.665 135.826 187.958 136.311 188.559C136.389 188.657 136.474 188.747 136.566 188.834L145.215 196.918C145.385 197.077 145.575 197.212 145.781 197.322C162.945 206.472 181.537 211.031 199.737 211.031ZM197.379 31.4401C219.331 31.4401 241.92 39.5994 259.52 54.2105C278.211 69.7253 289.252 90.5786 290.609 112.927C292.576 145.362 278.525 173.71 252.06 190.703C222.106 209.936 182.493 210.725 148.596 192.779L140.346 185.069C139.12 183.528 128.305 169.803 119.832 154.538C111.492 139.513 110.761 115.443 110.708 113.022C117.685 64.7665 143.26 37.5399 186.725 32.0982C190.245 31.6578 193.804 31.4401 197.379 31.4401Z" fill="#371A45"/>
<path d="M284.949 112.281C282.187 90.9708 292.502 72.0687 307.987 70.0622C323.472 68.0558 338.263 83.7047 341.025 105.015C343.786 126.326 333.471 145.228 317.986 147.234C302.501 149.241 287.71 133.592 284.949 112.281Z" fill="white"/>
<path d="M285.16 113.694C285.227 114.141 285.308 114.587 285.386 115.034C289.258 136.149 304.75 150.395 319.994 146.857C332.341 143.999 340.743 130.345 341.431 114.04C341.598 110.216 341.331 106.244 340.597 102.233C336.732 81.1244 321.234 66.8718 305.989 70.4096C291.064 73.8688 281.916 93.085 285.16 113.694Z" fill="white"/>
<g opacity="0.35">
<path d="M285.16 113.694C285.228 114.141 285.308 114.587 285.386 115.034C289.258 136.149 304.75 150.395 319.995 146.857C332.341 143.999 340.743 130.345 341.431 114.04L311.992 99.4533C311.992 99.4533 308.42 116.892 298.452 118.563C291.804 119.678 287.372 116.153 285.16 113.694Z" fill="#371A45"/>
</g>
<path d="M315.272 150.069C317.051 150.069 318.832 149.866 320.599 149.455C337.187 145.61 347.336 124.21 343.22 101.752C340.827 88.6862 334.2 77.7438 325.04 71.7308C318.798 67.6331 312.001 66.276 305.387 67.8116C288.798 71.6571 278.65 93.0572 282.765 115.515C285.159 128.581 291.786 139.523 300.945 145.536C305.519 148.54 310.391 150.069 315.272 150.069ZM310.683 72.5362C314.541 72.5362 318.43 73.7706 322.115 76.1886C329.945 81.3291 335.874 91.245 337.976 102.713C341.586 122.41 333.25 141.05 319.394 144.262C314.232 145.459 308.864 144.359 303.869 141.078C296.039 135.938 290.109 126.022 288.007 114.554C284.398 94.8564 292.734 76.2164 306.59 73.0044C307.944 72.6918 309.311 72.5362 310.683 72.5362Z" fill="#371A45"/>
<path d="M299.618 112.362C298.008 95.3838 306.97 80.6467 319.636 79.4456C332.302 78.2445 343.875 91.0344 345.485 108.012C347.095 124.991 338.132 139.728 325.466 140.929C312.8 142.13 301.228 129.34 299.618 112.362Z" fill="white"/>
<path d="M323.883 141.298C327.247 141.298 330.528 140.319 333.573 138.379C339.938 134.326 344.314 126.648 345.578 117.316C347.834 100.651 339.358 83.877 326.684 79.925C321.442 78.2912 316.195 79.005 311.511 81.9878C305.146 86.0412 300.77 93.7192 299.507 103.051C297.251 119.716 305.726 136.49 318.4 140.442C320.234 141.013 322.071 141.298 323.883 141.298ZM321.205 79.6287C322.961 79.6287 324.739 79.9037 326.519 80.4587C338.944 84.3321 347.246 100.834 345.026 117.243C343.785 126.412 339.501 133.944 333.275 137.911C328.732 140.804 323.646 141.495 318.567 139.91C306.142 136.037 297.84 119.535 300.06 103.126C301.301 93.9566 305.585 86.4243 311.811 82.4576C314.761 80.5782 317.944 79.6287 321.205 79.6287Z" fill="#371A45"/>
<g opacity="0.35">
<path d="M303.493 126.971C301.067 121.648 300.093 115.639 300.415 109.77C306.968 121.445 319.23 124.45 328.765 116.286C334.928 111.013 338.532 102.284 339.024 93.2014C339.442 93.9348 339.831 94.7157 340.201 95.5228C346.372 109.083 343.156 127.117 333.018 135.8C322.881 144.485 309.661 140.523 303.493 126.971Z" fill="#371A45"/>
</g>
<path d="M324.695 143.629C326.044 143.629 327.391 143.47 328.725 143.149C341.549 140.068 349.274 122.463 345.948 103.901C343.96 92.8149 338.361 83.3115 330.971 78.4821C326.276 75.4142 321.203 74.4156 316.303 75.5926C303.481 78.6737 295.756 96.279 299.081 114.84C301.068 125.927 306.666 135.429 314.057 140.26C317.474 142.491 321.09 143.629 324.695 143.629ZM320.302 80.4483C322.889 80.4483 325.525 81.2914 328.056 82.9432C334.241 86.9852 338.969 95.1707 340.701 104.839C343.538 120.672 337.608 135.532 327.481 137.964C324.043 138.789 320.409 138.04 316.974 135.795C310.789 131.753 306.061 123.568 304.329 113.899C301.492 98.0667 307.423 83.2068 317.549 80.774C318.454 80.5563 319.376 80.4483 320.302 80.4483Z" fill="#371A45"/>
<g opacity="0.7">
<path d="M213.189 46.7422C213.189 46.7422 166.926 55.5564 144.636 85.6151C144.613 85.6462 144.588 85.6789 144.565 85.71C139.88 92.0407 136.992 99.5271 136.149 107.357C135.034 117.714 135.782 125.013 136.689 131.415C139.456 150.88 144.395 159.484 144.395 159.484C131.861 150.773 123.962 139.983 121.497 123.792C121.258 122.196 121.071 120.541 120.932 118.835C120.899 118.442 120.875 118.053 120.857 117.66C120.849 117.656 120.85 117.648 120.858 117.635C120.821 114.161 120.944 109.595 121.512 104.456C123.216 88.9564 128.936 68.2406 146.407 56.5206C179.077 34.6065 214.504 44.4814 213.189 46.7422Z" fill="white"/>
</g>
<g opacity="0.7">
<path d="M243.049 94.6276C239.611 86.554 242.44 77.6172 249.368 74.6667C256.296 71.7162 264.7 75.8693 268.138 83.9429C271.576 92.0164 268.747 100.953 261.819 103.904C254.891 106.854 246.487 102.701 243.049 94.6276Z" fill="white"/>
</g>
<g opacity="0.7">
<path d="M262.739 120.972C261.043 117.77 261.895 113.994 264.643 112.538C267.39 111.083 270.993 112.499 272.689 115.701C274.386 118.904 273.533 122.679 270.786 124.135C268.038 125.59 264.435 124.174 262.739 120.972Z" fill="white"/>
</g>
<g opacity="0.2">
<path d="M3.02653 265.177L32.9903 372.732L200.419 391.999L197.221 380.522L50.021 363.589C43.99 362.895 38.9788 358.617 37.3483 352.768L10.071 254.878C9.92035 254.356 9.82215 253.842 9.76977 253.328C4.8421 254.639 1.52859 259.824 3.02653 265.177Z" fill="#371A45"/>
</g>
<g opacity="0.2">
<path d="M200.477 392.599L206.059 401.906L196.993 404.549L47.1576 387.871L38.7445 382.393L36.3036 373.314L200.477 392.599Z" fill="#371A45"/>
</g>
<path d="M304.905 354.744V356.918C304.905 362.628 301.384 367.747 296.052 369.789L215.127 400.774C204.414 404.217 192.867 405.327 181.435 404.012L52.7727 389.211C40.8219 387.836 32.1912 378.028 33.6154 367.44L136.64 335.387L304.905 354.744Z" fill="url(#paint0_linear_32_1464)"/>
<g opacity="0.35">
<path d="M52.7731 389.213L181.434 404.009C192.868 405.327 204.417 404.215 215.124 400.774L296.054 369.792C301.383 367.747 304.902 362.625 304.902 356.919V354.747L304.333 354.683C303.136 358.722 300.122 362.071 296.054 363.623L215.124 394.613C204.416 398.055 192.868 399.166 181.434 397.848L52.7731 383.044C43.1699 381.939 35.7031 375.392 33.8941 367.357L33.6158 367.443C32.1915 378.028 40.8256 387.837 52.7731 389.213Z" fill="#371A45"/>
</g>
<path d="M32.6184 372.852L200.883 392.215L304.91 354.745L293.708 353.46L136.638 335.39L85.811 353.691L32.6184 372.852Z" fill="#33AEF1"/>
<g opacity="0.6">
<path d="M32.6184 372.852L200.883 392.215L304.91 354.745L293.708 353.46L136.638 335.39L85.811 353.691L32.6184 372.852Z" fill="white"/>
</g>
<g opacity="0.2">
<path d="M32.6184 372.852L200.883 392.215L304.91 354.745L293.708 353.46C256.804 361.8 164.829 377.93 85.811 353.691L32.6184 372.852Z" fill="#371A45"/>
</g>
<path d="M200.884 394.877C201.192 394.877 201.497 394.825 201.788 394.72L305.809 357.254C306.973 356.835 307.697 355.667 307.553 354.439C307.409 353.212 306.439 352.241 305.21 352.098L136.944 332.741C136.535 332.694 136.122 332.743 135.736 332.882L31.7149 370.349C30.551 370.768 29.8274 371.935 29.9714 373.163C30.1155 374.391 31.0847 375.362 32.3141 375.504L200.58 394.861C200.681 394.871 200.783 394.877 200.884 394.877ZM293.3 356.091L200.568 389.491L44.2257 371.505L136.957 338.105L293.3 356.091Z" fill="#371A45"/>
<path d="M190.731 407.21C199.339 407.21 207.911 405.895 215.944 403.313C215.99 403.299 216.036 403.282 216.081 403.264L297.006 372.279C303.326 369.859 307.572 363.686 307.572 356.92V354.746C307.572 353.392 306.557 352.252 305.212 352.098L136.946 332.741C136.578 332.7 136.204 332.735 135.849 332.845L32.8249 364.897C31.8345 365.205 31.1141 366.06 30.975 367.088C30.2481 372.498 31.7804 377.963 35.2937 382.476C39.3193 387.65 45.5795 391.071 52.4684 391.864L181.131 406.665C184.319 407.028 187.527 407.21 190.731 407.21ZM214.243 398.26C203.957 401.553 192.719 402.627 181.74 401.365L53.0774 386.564C47.5997 385.934 42.6508 383.249 39.4993 379.199C37.2369 376.291 36.0696 372.881 36.1318 369.448L136.895 338.1L302.239 357.121C302.155 361.615 299.308 365.69 295.099 367.301L214.243 398.26Z" fill="#371A45"/>
<path d="M3.01833 265.336L32.9903 372.893L101.549 380.782L125.023 383.48L137.782 384.945L162.057 387.743L200.424 392.154L168.36 277.079C167.314 273.32 164.089 270.568 160.217 270.123L30.2449 255.171L17.8308 253.739L13.3599 253.226C11.4068 253.007 9.56832 253.374 7.98198 254.166C5.23002 255.538 3.24424 258.205 2.76457 261.289C2.57139 262.585 2.63198 263.957 3.01833 265.336Z" fill="#33AEF1"/>
<g opacity="0.25">
<path d="M2.76427 261.292L101.547 380.784L125.021 383.482C89.5795 344.409 31.0696 279.861 7.98167 254.167C5.22971 255.541 3.24394 258.206 2.76427 261.292Z" fill="white"/>
</g>
<g opacity="0.25">
<path d="M17.8306 253.742L137.782 384.947L162.057 387.745C124.183 349.751 57.2043 282.499 30.2446 255.173L17.8306 253.742Z" fill="white"/>
</g>
<g opacity="0.6">
<path d="M3.59275 261.456C4.38183 261.341 5.21512 261.323 6.05659 261.42L152.907 278.311C156.789 278.763 160.006 281.51 161.052 285.269L190.219 389.953L201.349 391.23L169.287 276.159C168.24 272.392 165.015 269.645 161.142 269.201L14.2814 252.299C8.54825 251.645 3.78757 256.084 3.59275 261.456Z" fill="white"/>
</g>
<path d="M200.423 394.825C201.197 394.825 201.94 394.486 202.449 393.89C203.026 393.216 203.229 392.299 202.99 391.444L170.927 276.368C169.581 271.542 165.497 268.053 160.52 267.48L13.6609 250.585C9.60422 250.119 5.59334 251.695 2.93797 254.803C0.284234 257.91 -0.645627 262.115 0.451227 266.053L30.4199 373.613C30.7113 374.658 31.6052 375.422 32.6824 375.545L200.116 394.807C200.22 394.819 200.321 394.825 200.423 394.825ZM12.2253 255.832C12.4986 255.832 12.7736 255.849 13.052 255.88L159.911 272.775C162.724 273.099 165.032 275.07 165.793 277.797L196.793 389.058L35.0775 370.454L5.5901 264.62C4.96145 262.363 5.4722 260.046 6.9947 258.263C8.33384 256.693 10.2067 255.832 12.2253 255.832Z" fill="#371A45"/>
<path d="M321.671 225.78C321.671 225.78 317.313 271.437 293.565 301.45C270.4 330.724 245.284 331.913 245.284 331.913C245.284 331.913 237.187 349.16 226.536 352.76C215.777 356.396 195.408 351.44 191.024 334.344C186.391 316.275 190.855 289.867 205.445 286.624C220.037 283.381 275.341 267.406 277.813 214.351L321.671 225.78Z" fill="white"/>
<g opacity="0.35">
<path d="M191.024 334.342C195.405 351.44 215.774 356.399 226.538 352.758C237.189 349.16 245.281 331.913 245.281 331.913C245.281 331.913 270.401 330.723 293.561 301.45C308.984 281.958 316.229 255.876 319.414 239.975C315.224 254.365 308.42 271.329 297.585 285.028C274.416 314.301 249.297 315.491 249.297 315.491C249.297 315.491 241.205 332.738 230.554 336.336C219.796 339.969 199.421 335.018 195.04 317.92C193.465 311.765 192.938 304.64 193.516 297.796C188.816 307.926 188.074 322.83 191.024 334.342Z" fill="#371A45"/>
</g>
<path d="M320.785 225.695C317.452 236.912 315.049 248.154 311.542 259.123L310.251 263.235L308.833 267.3C307.941 270.034 306.777 272.653 305.721 275.322C305.171 276.646 304.529 277.925 303.94 279.23L303.036 281.178L302.581 282.15L302.07 283.091C300.687 285.586 299.429 288.165 297.85 290.534L295.587 294.155L293.077 297.593C291.481 299.941 289.538 302.038 287.727 304.233C287.284 304.791 286.779 305.292 286.288 305.805L284.813 307.342C283.829 308.367 282.865 309.411 281.793 310.341L278.651 313.206L275.344 315.866C270.855 319.301 266.034 322.293 260.928 324.631C258.386 325.823 255.75 326.792 253.088 327.611L251.081 328.179L249.062 328.652C248.391 328.775 247.715 328.917 247.049 329.02C246.402 329.122 245.667 329.217 245.158 329.251L245.14 329.253C244.131 329.322 243.285 329.934 242.871 330.782C241.879 332.822 240.654 334.956 239.392 336.947C238.112 338.949 236.745 340.892 235.25 342.69C233.749 344.478 232.136 346.133 230.403 347.531L229.073 348.503C228.623 348.806 228.153 349.042 227.698 349.32C227.248 349.628 226.762 349.752 226.295 349.972C226.058 350.067 225.834 350.183 225.585 350.266L224.827 350.497C220.669 351.599 215.903 351.376 211.517 350.24C207.105 349.107 202.952 346.984 199.706 343.962C198.101 342.438 196.713 340.709 195.642 338.795C195.128 337.828 194.639 336.844 194.279 335.803C194.076 335.292 193.914 334.765 193.768 334.231C193.603 333.719 193.478 333.129 193.342 332.563C192.294 327.992 191.87 323.218 191.956 318.476C192.051 313.733 192.653 308.985 193.912 304.488C195.163 300.017 197.137 295.707 200.113 292.651C201.61 291.162 203.329 290.008 205.231 289.452L205.946 289.25L206.852 289.037L208.701 288.592C209.931 288.284 211.154 287.962 212.369 287.613C217.231 286.236 222.006 284.578 226.678 282.653C236.003 278.778 244.963 273.824 252.936 267.441C256.916 264.252 260.635 260.704 263.96 256.793C267.282 252.881 270.201 248.613 272.668 244.086C275.148 239.576 277.219 234.76 278.255 229.698C279.357 224.667 279.656 219.456 278.704 214.394C278.61 213.898 278.134 213.572 277.638 213.666C277.296 213.729 277.036 213.977 276.936 214.288L276.929 214.312C275.412 219.132 274.32 223.757 272.962 228.316C272.578 229.441 272.234 230.573 271.885 231.705C271.46 232.81 271.067 233.923 270.669 235.038C269.801 237.235 268.927 239.438 267.837 241.544C265.692 245.771 262.992 249.718 259.902 253.341C256.816 256.97 253.345 260.285 249.603 263.283C242.111 269.283 233.582 274.014 224.645 277.727C220.168 279.57 215.577 281.166 210.918 282.484C209.754 282.818 208.584 283.126 207.413 283.421L205.655 283.845L204.753 284.057L203.681 284.352C200.822 285.194 198.312 286.908 196.323 288.905C192.373 293.002 190.21 298.041 188.785 303.041C187.377 308.079 186.733 313.23 186.628 318.376C186.54 323.523 186.989 328.683 188.151 333.761C188.305 334.398 188.436 335.02 188.644 335.688C188.825 336.35 189.03 337.003 189.279 337.644C189.734 338.941 190.34 340.184 190.993 341.397C192.339 343.803 194.082 345.976 196.068 347.855C200.084 351.588 205.028 354.069 210.186 355.4C212.771 356.073 215.425 356.456 218.113 356.535C220.801 356.602 223.527 356.368 226.246 355.638L227.263 355.328C227.602 355.217 227.936 355.06 228.271 354.926C228.929 354.631 229.643 354.397 230.229 354.015C230.833 353.657 231.465 353.321 232.042 352.935L233.708 351.717C235.83 350.009 237.675 348.099 239.354 346.097C241.024 344.086 242.509 341.973 243.894 339.809C245.276 337.618 246.527 335.461 247.7 333.049L245.413 334.578C246.361 334.516 247.073 334.41 247.869 334.29C248.645 334.171 249.4 334.013 250.163 333.871L252.409 333.345L254.617 332.722C257.534 331.826 260.394 330.769 263.141 329.485C268.658 326.961 273.819 323.754 278.601 320.093L282.119 317.261L285.45 314.226C286.586 313.237 287.606 312.139 288.644 311.056L290.203 309.434C290.72 308.892 291.252 308.36 291.72 307.777C293.629 305.471 295.659 303.269 297.36 300.782L300.014 297.141L302.396 293.335C308.674 283.136 313.361 272.125 317.038 260.85C318.817 255.192 320.278 249.436 321.299 243.605C321.583 242.153 321.786 240.684 321.974 239.216C322.193 237.754 322.319 236.274 322.44 234.797C322.666 231.837 322.787 228.884 322.56 225.87C322.522 225.374 322.09 225.001 321.592 225.038C321.209 225.068 320.902 225.331 320.797 225.679L320.785 225.695Z" fill="#371A45"/>
<path d="M245.282 334.267C246.235 334.267 247.132 333.684 247.486 332.74C250.09 325.788 253.5 326.026 253.533 326.031C254.805 326.291 256.051 325.472 256.313 324.2C256.575 322.928 255.756 321.684 254.483 321.421C254.186 321.36 247.214 320.06 243.08 331.088C242.624 332.304 243.241 333.661 244.457 334.116C244.729 334.218 245.009 334.267 245.282 334.267Z" fill="#371A45"/>
<path d="M339.605 355.284C339.605 355.284 341.257 329.433 335.082 318.397C324.736 299.908 302.265 305.358 294.561 308.697C283.519 313.484 317.94 389.974 317.94 389.974L339.605 355.284Z" fill="white"/>
<path d="M347.904 345.101C347.665 341.609 347.153 338.18 346.465 334.765C345.771 331.353 344.9 327.964 343.774 324.628C343.223 322.955 342.6 321.3 341.878 319.667C341.511 318.852 341.171 318.03 340.748 317.23C340.345 316.424 339.953 315.619 339.457 314.807C337.526 311.593 334.842 308.733 331.636 306.674C328.437 304.596 324.813 303.316 321.177 302.669C317.529 302.018 313.857 301.949 310.261 302.24C306.659 302.537 303.126 303.206 299.669 304.164C297.938 304.647 296.231 305.197 294.523 305.868L293.881 306.127L293.559 306.263C293.433 306.317 293.186 306.44 293.009 306.533C292.244 306.967 291.63 307.591 291.21 308.209C290.373 309.467 290.106 310.637 289.921 311.693C289.6 313.811 289.713 315.679 289.879 317.516C290.059 319.345 290.35 321.113 290.689 322.856C291.385 326.339 292.285 329.719 293.256 333.065C295.212 339.75 297.481 346.285 299.87 352.766C302.247 359.251 304.819 365.65 307.486 372.002C310.151 378.362 312.878 384.67 315.796 390.94C316.344 392.119 317.744 392.628 318.921 392.081C320.075 391.544 320.587 390.192 320.095 389.03L320.085 389.008C317.415 382.735 314.779 376.401 312.235 370.057C309.702 363.702 307.247 357.321 304.876 350.921C302.529 344.515 300.305 338.065 298.418 331.566C297.48 328.318 296.627 325.053 295.977 321.802C295.646 320.18 295.368 318.559 295.198 316.973C295.031 315.399 294.965 313.808 295.157 312.525C295.243 311.894 295.44 311.366 295.566 311.19C295.627 311.1 295.636 311.105 295.617 311.109L296.465 310.753C297.948 310.157 299.508 309.642 301.081 309.19C304.234 308.291 307.473 307.664 310.709 307.347C313.946 307.04 317.195 307.068 320.32 307.586C323.442 308.098 326.427 309.129 329.018 310.763C331.615 312.387 333.786 314.625 335.429 317.271C335.832 317.922 336.222 318.644 336.613 319.361C337.021 320.064 337.363 320.818 337.728 321.557C338.437 323.046 339.096 324.577 339.741 326.121C342.269 332.325 344.317 338.841 346.332 345.37L346.339 345.389C346.47 345.812 346.917 346.048 347.339 345.918C347.703 345.809 347.928 345.463 347.904 345.101Z" fill="#371A45"/>
<path d="M324.005 402.639C324.005 402.639 332.672 401.705 336.588 388.758C340.506 375.81 333.808 360.282 332.302 345.499C329.755 320.481 320.103 306.584 298.637 307.973C277.805 309.322 283.301 339.709 286.984 354.929C292.444 377.486 300.601 404.01 324.005 402.639Z" fill="#AFAFB2"/>
<g opacity="0.35">
<path d="M289.338 364.072C294.881 384.048 303.71 403.832 324.007 402.638C324.007 402.638 332.669 401.705 336.586 388.759C339.818 378.085 335.833 365.658 333.494 353.337C333.82 358.014 333.568 362.526 332.274 366.791C327.923 381.163 318.302 382.203 318.302 382.203C304.65 383.001 295.667 375.247 289.338 364.072Z" fill="#371A45"/>
</g>
<path d="M337.733 384.231C338.875 384.231 339.807 383.308 339.815 382.164C339.823 381.014 338.896 380.075 337.747 380.067L295.649 379.78C295.644 379.78 295.639 379.78 295.635 379.78C294.492 379.78 293.56 380.703 293.552 381.848C293.544 382.997 294.471 383.937 295.62 383.945L337.718 384.231C337.723 384.231 337.728 384.231 337.733 384.231Z" fill="#371A45"/>
<path d="M335.842 366.66C336.985 366.66 337.916 365.737 337.924 364.591C337.932 363.442 337.006 362.502 335.855 362.496L289.412 362.189C289.407 362.189 289.402 362.189 289.397 362.189C288.255 362.189 287.323 363.113 287.315 364.259C287.307 365.408 288.233 366.348 289.384 366.354L335.827 366.66C335.832 366.66 335.837 366.66 335.842 366.66Z" fill="#371A45"/>
<path d="M332.421 348.651C333.564 348.651 334.496 347.727 334.504 346.583C334.512 345.434 333.585 344.494 332.436 344.486L285.134 344.167C285.129 344.167 285.124 344.167 285.119 344.167C283.977 344.167 283.045 345.09 283.037 346.234C283.029 347.383 283.955 348.323 285.104 348.331L332.407 348.651C332.413 348.651 332.418 348.651 332.421 348.651Z" fill="#371A45"/>
<path d="M328.398 329.3C329.541 329.3 330.472 328.377 330.48 327.232C330.489 326.083 329.562 325.143 328.413 325.135L283.589 324.836C283.584 324.836 283.579 324.836 283.574 324.836C282.432 324.836 281.5 325.759 281.492 326.903C281.484 328.053 282.41 328.992 283.56 329L328.383 329.3C328.388 329.3 328.393 329.3 328.398 329.3Z" fill="#371A45"/>
<g opacity="0.7">
<path d="M286.945 354.776C284.174 339.031 283.646 318.608 300.644 317.503C317.588 316.41 327.177 324.845 331.715 340.758C328.45 318.736 318.702 306.675 298.639 307.975C277.871 309.313 283.268 339.511 286.945 354.776Z" fill="white"/>
</g>
<path d="M331.716 340.758C331.942 342.291 332.135 343.877 332.302 345.503C332.914 351.512 334.388 357.643 335.653 363.679C335.087 360.78 334.601 357.895 334.308 355.031C333.776 349.766 332.923 344.995 331.716 340.758Z" fill="white"/>
<g opacity="0.35">
<path d="M329.331 329.956C330.184 334.141 331.15 338.319 331.942 342.436C331.35 337.859 330.49 333.687 329.331 329.956Z" fill="#371A45"/>
</g>
<g opacity="0.35">
<path d="M331.942 342.436C332.075 343.437 332.196 344.462 332.303 345.501C332.569 348.099 332.989 350.718 333.496 353.336C333.249 349.78 332.663 346.135 331.942 342.436Z" fill="#371A45"/>
</g>
<path d="M322.283 405.355C322.901 405.355 323.524 405.337 324.161 405.299C324.204 405.298 324.248 405.293 324.29 405.288C324.716 405.242 334.761 403.999 339.139 389.529C341.95 380.239 339.718 369.873 337.559 359.847C336.518 355.011 335.441 350.01 334.954 345.228C332.076 316.965 320.14 303.912 298.465 305.312C292.845 305.675 288.469 307.936 285.457 312.029C279.585 320.01 279.237 334.248 284.394 355.556C288.636 373.083 296.45 405.355 322.283 405.355ZM323.74 399.985C302.689 401.133 295.072 377.012 289.574 354.302C283.723 330.125 286.441 319.687 289.749 315.189C291.814 312.384 294.777 310.893 298.809 310.633C317.544 309.413 327.052 320.255 329.65 345.77C330.168 350.845 331.276 355.992 332.347 360.97C334.455 370.763 336.447 380.014 334.034 387.985C330.857 398.502 324.466 399.864 323.74 399.985Z" fill="#371A45"/>
<path d="M322.298 404.772C322.899 404.772 323.508 404.754 324.128 404.718C324.163 404.716 324.195 404.713 324.23 404.71C324.639 404.665 334.316 403.467 338.582 389.362C341.349 380.215 339.134 369.925 336.991 359.971C335.946 355.119 334.866 350.101 334.376 345.288C331.536 317.402 319.805 304.518 298.504 305.894C293.064 306.246 288.832 308.427 285.928 312.374C280.244 320.1 279.92 334.581 284.962 355.418C289.165 372.786 296.908 404.772 322.298 404.772ZM323.806 400.564C302.306 401.786 294.564 377.388 289.009 354.439C283.104 330.043 285.899 319.441 289.283 314.843C291.455 311.891 294.559 310.323 298.775 310.051C317.634 308.83 327.632 320.162 330.233 345.71C330.747 350.753 331.852 355.885 332.919 360.849C335.044 370.719 337.051 380.04 334.596 388.155C331.271 399.143 324.483 400.46 323.806 400.564Z" fill="#371A45"/>
<path d="M357.337 363.751C355.831 364.555 354.469 365.547 353.157 366.618C351.861 367.701 350.638 368.885 349.505 370.164C348.367 371.437 347.303 372.803 346.436 374.302C345.543 375.784 344.848 377.409 344.419 379.112C344.135 380.232 344.815 381.37 345.935 381.651C346.864 381.885 347.807 381.456 348.261 380.662L348.33 380.543C349.091 379.21 349.675 377.83 350.397 376.475C351.103 375.121 351.771 373.716 352.555 372.354C354.089 369.61 355.847 366.916 357.723 364.203L357.731 364.192C357.826 364.054 357.792 363.864 357.655 363.768C357.558 363.702 357.435 363.699 357.337 363.751Z" fill="#371A45"/>
<path d="M212.68 262.631C212.783 263.842 215.314 273.48 215.314 273.48C215.314 273.48 218.413 273.218 222.218 272.895C226.972 272.493 230.408 267.246 229.894 261.174C229.38 255.103 225.11 250.508 220.356 250.909C217.149 251.181 213.453 251.494 213.453 251.494C213.453 251.494 212.513 260.656 212.68 262.631Z" fill="#22A7F0"/>
<path d="M212.681 262.631C212.781 263.842 215.31 273.482 215.31 273.482C215.31 273.482 215.389 273.475 215.538 273.46C214.826 270.676 214.014 267.362 213.956 266.686C213.786 264.713 214.726 255.55 214.726 255.55C214.726 255.55 218.424 255.238 221.629 254.966C224.949 254.681 228.042 256.847 229.779 260.246C228.939 254.639 224.863 250.528 220.354 250.913C217.149 251.183 213.45 251.497 213.45 251.497C213.45 251.497 212.509 260.658 212.681 262.631Z" fill="white"/>
<g opacity="0.35">
<path d="M212.681 262.631C212.781 263.842 215.31 273.481 215.31 273.481C215.31 273.481 218.409 273.218 222.214 272.897C226.973 272.491 230.406 267.247 229.894 261.171C229.773 259.732 229.437 258.371 228.939 257.145C227.836 260.871 225.128 263.6 221.751 263.877C217.946 264.198 214.847 264.461 214.847 264.461C214.847 264.461 213.729 260.187 212.945 256.973C212.76 259.319 212.603 261.727 212.681 262.631Z" fill="#371A45"/>
</g>
<path d="M217.203 275.31C217.331 275.31 217.46 275.305 217.589 275.294L222.384 274.888C228.229 274.393 232.49 268.166 231.885 261.005C231.598 257.626 230.282 254.517 228.178 252.253C225.948 249.855 223.111 248.676 220.186 248.917L215.366 249.325C213.191 249.51 211.462 251.22 211.257 253.394C210.779 258.468 210.588 261.631 210.686 262.798C210.712 263.114 210.784 263.95 212.843 271.93C213.362 273.938 215.16 275.31 217.203 275.31ZM220.931 252.885C222.466 252.885 223.986 253.617 225.249 254.976C226.747 256.588 227.689 258.849 227.9 261.342C228.321 266.306 225.695 270.595 222.047 270.903L217.252 271.309C216.997 271.335 216.777 271.172 216.715 270.933C215.288 265.404 214.721 262.914 214.669 262.457C214.641 262.115 214.603 260.496 215.237 253.771C215.26 253.525 215.456 253.331 215.703 253.311L220.523 252.903C220.659 252.89 220.795 252.885 220.931 252.885Z" fill="#371A45"/>
<path d="M205.805 263.211C205.291 257.14 208.728 251.892 213.481 251.49C218.234 251.088 222.504 255.683 223.017 261.754C223.531 267.825 220.094 273.073 215.341 273.475C210.588 273.877 206.318 269.282 205.805 263.211Z" fill="#22A7F0"/>
<path d="M205.777 263.215C205.841 263.949 205.956 264.661 206.126 265.345C206.49 260.244 209.638 256.163 213.812 255.806C217.993 255.457 221.798 258.962 223.003 263.942C223.052 263.23 223.052 262.497 222.988 261.755C222.476 255.685 218.201 251.091 213.449 251.497C208.698 251.895 205.265 257.147 205.777 263.215Z" fill="white"/>
<g opacity="0.35">
<path d="M205.778 263.216C206.29 269.286 210.558 273.88 215.311 273.482C220.07 273.076 223.503 267.832 222.99 261.755C222.863 260.259 222.506 258.849 221.972 257.587C221.018 261.677 218.182 264.733 214.599 265.039C211.022 265.339 207.716 262.809 206.086 258.941C205.763 260.274 205.65 261.719 205.778 263.216Z" fill="#371A45"/>
</g>
<path d="M214.741 275.503C214.986 275.503 215.233 275.494 215.481 275.472C221.325 274.978 225.586 268.75 224.981 261.59C224.694 258.211 223.378 255.102 221.274 252.838C219.045 250.439 216.206 249.259 213.282 249.501C210.358 249.749 207.758 251.394 205.966 254.133C204.273 256.718 203.497 260.003 203.784 263.382C204.365 270.24 209.201 275.503 214.741 275.503ZM214.029 253.47C215.564 253.47 217.083 254.202 218.347 255.56C219.845 257.173 220.786 259.434 220.998 261.927C221.418 266.889 218.793 271.18 215.145 271.488C211.498 271.805 208.189 268.009 207.768 263.047C207.557 260.553 208.106 258.167 209.312 256.325C210.419 254.637 211.948 253.629 213.623 253.488C213.757 253.475 213.893 253.47 214.029 253.47Z" fill="#371A45"/>
<defs>
<linearGradient id="paint0_linear_32_1464" x1="304.905" y1="348.109" x2="228.036" y2="497.737" gradientUnits="userSpaceOnUse">
<stop stop-color="#7B4499"/>
<stop offset="1" stop-color="#DB3DB4"/>
</linearGradient>
</defs>
</svg>
