<svg width="500" height="100" viewBox="0 0 500 100" fill="none" xmlns="http://www.w3.org/2000/svg">
<path d="M170.049 14.2378H162.826C159.468 14.2378 156.84 16.666 156.84 19.7622C156.84 22.8584 159.468 25.2866 162.826 25.2866H170.049C178.621 25.2866 184.805 27.0176 188.461 30.4502C191.546 33.3173 193.046 37.5349 193.046 43.3373C193.046 49.1445 191.546 53.3621 188.441 56.2438C184.81 59.657 178.626 61.3879 170.054 61.3879H162.826C159.468 61.3879 156.84 63.8161 156.84 66.9172C156.84 70.0134 159.468 72.4416 162.826 72.4416H170.049C181.868 72.4416 190.906 69.6428 196.933 64.0989C202.294 59.1157 205.012 52.1285 205.012 43.3373C205.012 34.546 202.294 27.5588 196.912 22.5561C190.901 17.0366 181.862 14.2378 170.049 14.2378Z" fill="white"/>
<path d="M221.998 48.9063H254.548C257.905 48.9063 260.533 46.4634 260.533 43.3428C260.533 40.2223 257.905 37.7794 254.548 37.7794H221.998C218.641 37.7794 216.013 40.2223 216.013 43.3428C216.013 46.4634 218.641 48.9063 221.998 48.9063Z" fill="white"/>
<path d="M258.204 14.2378H221.999C218.641 14.2378 216.013 16.666 216.013 19.7622C216.013 22.8584 218.641 25.2866 221.999 25.2866H258.199C261.556 25.2866 264.185 22.8584 264.185 19.7622C264.19 16.666 261.562 14.2378 258.204 14.2378Z" fill="white"/>
<path d="M258.204 61.3976H221.999C218.641 61.3976 216.013 63.8258 216.013 66.922C216.013 70.0231 218.641 72.4464 221.999 72.4464H258.199C261.556 72.4464 264.185 70.0182 264.185 66.922C264.19 63.8258 261.562 61.3976 258.204 61.3976Z" fill="white"/>
<path d="M314.717 17.3535C310.678 15.2861 305.758 14.2378 300.092 14.2378H281.989C278.632 14.2378 276.004 16.666 276.004 19.7622C276.004 22.8584 278.632 25.2866 281.989 25.2866H300.092C303.691 25.2866 306.686 25.8864 308.989 27.0712C311.276 28.2463 312.205 29.7822 312.205 32.3616C312.205 34.9458 311.276 36.4768 308.937 37.6812C306.639 38.8953 303.659 39.5097 300.087 39.5097H281.984C278.627 39.5097 275.999 41.9184 275.999 45V66.8831C275.999 70.0037 278.611 72.4465 281.942 72.4465C285.273 72.4465 287.886 70.0037 287.886 66.8831V50.5634H300.082C305.768 50.5634 310.71 49.4809 314.702 47.3794C320.892 44.2198 324.17 39.027 324.17 32.3616C324.175 25.7011 320.902 20.5131 314.717 17.3535Z" fill="white"/>
<path d="M375.336 61.3986H345.037V19.8071C345.037 16.6865 342.445 14.2437 339.135 14.2437C335.778 14.2437 333.15 16.6865 333.15 19.8071V66.8889C333.15 68.0591 333.543 69.1465 334.204 70.0388V71.4674H335.741C336.706 72.0867 337.876 72.4475 339.135 72.4475H375.336C378.693 72.4475 381.321 70.0193 381.321 66.9231C381.321 63.8269 378.693 61.3986 375.336 61.3986Z" fill="white"/>
<path d="M420.664 17.5973L420.517 17.3047C419.489 15.4129 417.417 14.2378 415.114 14.2378C412.848 14.2378 410.807 15.4178 409.784 17.3242L388.146 64.3768C387.694 65.1375 387.453 65.9956 387.453 66.8831C387.453 70.0036 390.081 72.4465 393.438 72.4465C395.694 72.4465 397.729 71.2714 398.763 69.3844L415.124 33.8682L431.402 69.1016L431.533 69.3649C432.556 71.2665 434.602 72.4514 436.868 72.4514C440.225 72.4514 442.853 70.0085 442.853 66.8879C442.853 66.0054 442.617 65.157 442.171 64.3963L420.664 17.5973Z" fill="white"/>
<path d="M494.016 14.2378C490.658 14.2378 488.03 16.6806 488.03 19.8012V49.5979L462.646 16.6026C461.529 15.1203 459.73 14.2427 457.81 14.2427C454.453 14.2427 451.824 16.6855 451.824 19.8061V66.8879C451.824 70.0085 454.437 72.4514 457.773 72.4514C461.104 72.4514 463.716 70.0085 463.716 66.8879V37.0912L489.095 70.0817C490.213 71.5639 492.038 72.4465 494.016 72.4465C497.373 72.4465 500.001 70.0036 500.001 66.8831V19.8012C500.001 16.6806 497.373 14.2378 494.016 14.2378Z" fill="white"/>
<path d="M80.7419 44.0645C59.78 44.0498 42.7734 59.8381 42.7734 79.3222V93.9695C42.7734 97.1486 45.5484 99.7231 48.9634 99.7231C52.3836 99.7231 55.1533 97.1486 55.1533 93.9695V79.0297C55.1533 66.0695 66.4263 55.5521 80.3694 55.5082H80.6422C84.9752 55.4936 87.7816 53.1873 87.7869 49.8229C87.8026 46.3903 85.0748 44.084 80.7419 44.0645Z" fill="white"/>
<path d="M70.9482 0C31.7628 0 0 29.5237 0 65.9468V93.4177C0 96.3188 2.52843 98.669 5.64963 98.669C8.77083 98.669 11.3045 96.3188 11.3045 93.4177V65.0008C11.3045 35.4625 37.2078 11.5852 68.9863 11.829L92.3717 12.0094C93.1638 11.8826 94.0293 11.8777 94.9526 12.0484C96.5788 12.3409 98.1577 12.6969 99.6947 13.1211C101.762 13.5794 103.514 14.1402 104.762 14.8374C113.077 18.1823 119.676 23.7652 124.171 31.7666C128.058 38.6904 129.58 45.9945 128.997 52.9963C128.961 67.1657 117.268 77.8635 109.179 83.0661C107.999 84.4509 102.312 86.4451 100.534 87.0644C97.2345 88.2151 93.7566 88.8636 90.2419 89.0879L88.8833 89.1756C87.2152 89.2829 85.5313 89.3317 83.8894 89.0342C82.2527 88.7319 80.6528 88.0542 79.5459 86.8888C78.2135 85.4846 77.7362 83.4221 78.3289 81.6326C79.9761 76.6835 86.4178 77.8879 90.6196 77.2248C95.687 76.4251 100.733 74.426 104.93 71.676C107.915 69.7207 110.543 67.2876 112.589 64.4694C113.853 62.7384 114.918 60.8612 115.652 58.8816C115.799 58.4817 115.946 58.077 116.046 57.6626C116.733 54.9321 117.425 51.2654 117.404 49.9148C117.294 42.8788 114.498 35.8965 109.279 30.7524C97.224 18.8844 75.0609 19.9571 59.329 22.868C50.3273 24.5356 41.9342 28.6606 35.3561 34.6044C26.1289 42.9422 20.8412 54.5713 20.8412 66.527V94.2417C20.8412 96.9722 22.9867 99.4102 25.9138 99.6686C29.2711 99.966 32.0933 97.5232 32.0933 94.466C32.0933 94.466 32.0933 71.2664 32.0933 71.2615C32.0933 53.5034 45.8632 37.9298 64.5065 34.2728C70.324 33.1319 77.0962 33.2976 83.0763 33.3464C89.1036 33.3952 95.6345 34.4874 100.088 38.5636C104.285 42.4058 106.105 47.94 104.851 53.2986C103.472 59.1887 98.5721 63.66 92.4242 65.3519C90.0531 66.0053 87.8027 66.0004 85.4788 65.9955C84.6238 65.9955 83.7582 65.9906 82.877 66.0199C79.0161 66.1516 75.2707 67.5948 72.2492 69.789C66.2743 74.1188 63.9347 81.6131 66.3477 88.0542C72.6006 104.793 98.5144 100.527 111.482 94.3782C144.74 78.6095 148.863 40.5384 129.8 19.3866C120.609 9.1911 109.646 2.82803 95.6398 0.594862C93.1113 0.190161 90.5777 0.0292555 88.044 0H70.9482Z" fill="white"/>
<path d="M162.616 90.0228L166.576 99.721V99.8137H165.018L163.917 97.0198H159.432L158.341 99.8137H156.84V99.721L160.796 90.0228H162.616ZM159.883 95.869H163.455L161.672 91.3344L159.883 95.869Z" fill="white"/>
<path d="M188.886 94.3915V99.165C188.246 99.4478 187.648 99.6575 187.082 99.794C186.521 99.9306 185.865 99.9988 185.115 99.9988C183.955 99.9988 183.001 99.7843 182.251 99.3503C181.506 98.9164 180.955 98.3215 180.609 97.5657C180.262 96.81 180.089 95.9323 180.089 94.9376C180.089 93.7674 180.315 92.8068 180.771 92.0462C181.228 91.2856 181.836 90.7297 182.592 90.3786C183.347 90.0276 184.192 89.8472 185.11 89.8472C185.791 89.8472 186.421 89.9252 186.993 90.0715C187.57 90.2226 188.11 90.4469 188.619 90.7346L187.968 91.7927C187.591 91.5684 187.176 91.3928 186.725 91.2563C186.274 91.1198 185.776 91.0515 185.22 91.0515C183.997 91.0515 183.1 91.3928 182.529 92.0706C181.962 92.7483 181.674 93.6845 181.674 94.8742C181.674 96.1225 181.946 97.0879 182.487 97.7657C183.027 98.4434 183.913 98.7847 185.136 98.7847C185.891 98.7847 186.641 98.6579 187.381 98.4093V95.5715H184.685L184.847 94.3915H188.886Z" fill="white"/>
<path d="M205.648 98.6337H210.815V99.8137H204.153V90.0228H210.736V91.2028H205.648V94.2551H210.101L209.939 95.4058H205.648V98.6337Z" fill="white"/>
<path d="M234.613 90.0233V99.8142H232.956L228.324 93.4706L228.114 93.1829C228.093 93.1439 228.025 93.0464 227.909 92.8952C227.794 92.7441 227.699 92.6027 227.616 92.471C227.532 92.3394 227.458 92.2077 227.395 92.0761V99.8093H225.963V90.0184H227.537L232.3 96.4985C232.342 96.557 232.436 96.6838 232.578 96.8691C232.72 97.0544 232.835 97.225 232.935 97.3811C233.034 97.5371 233.113 97.6883 233.181 97.8297V90.0184H234.613V90.0233Z" fill="white"/>
<path d="M251.808 99.3758C251.084 98.9614 250.544 98.3762 250.192 97.6254C249.841 96.8696 249.663 95.9773 249.663 94.9534C249.663 93.7636 249.888 92.7884 250.334 92.0278C250.785 91.2672 251.373 90.7113 252.097 90.3651C252.821 90.0189 253.618 89.8434 254.483 89.8434C255.144 89.8434 255.753 89.9214 256.314 90.0677C256.875 90.2188 257.405 90.4431 257.914 90.7308L257.264 91.7889C256.419 91.2964 255.512 91.0477 254.546 91.0477C253.419 91.0477 252.59 91.3891 252.055 92.0766C251.52 92.7592 251.252 93.6954 251.252 94.8705C251.252 96.0894 251.535 97.0451 252.097 97.7424C252.658 98.4396 253.492 98.7858 254.583 98.7858C255.134 98.7858 255.632 98.7224 256.078 98.5908C256.524 98.4591 256.965 98.2738 257.411 98.0301L258.014 99.0442C257.437 99.3563 256.881 99.5952 256.33 99.7561C255.784 99.917 255.176 99.9999 254.52 99.9999C253.44 99.995 252.532 99.7903 251.808 99.3758Z" fill="white"/>
<path d="M280.692 90.0228V90.1155L276.789 95.9909V99.8137H275.294V95.9471L271.507 90.1155V90.0228H273.149L276.091 94.7232L279.15 90.0228H280.692Z" fill="white"/>
</svg>
