<svg width="89" height="18" viewBox="0 0 89 18" fill="none" xmlns="http://www.w3.org/2000/svg">
<path d="M30.2691 2.5343H28.9834C28.3858 2.5343 27.918 2.96652 27.918 3.51765C27.918 4.06877 28.3858 4.50099 28.9834 4.50099H30.2691C31.7948 4.50099 32.8957 4.8091 33.5465 5.42011C34.0956 5.93045 34.3626 6.68119 34.3626 7.71401C34.3626 8.74769 34.0956 9.49844 33.5428 10.0114C32.8967 10.6189 31.7958 10.927 30.2701 10.927H28.9834C28.3858 10.927 27.918 11.3592 27.918 11.9112C27.918 12.4624 28.3858 12.8946 28.9834 12.8946H30.2691C32.3728 12.8946 33.9817 12.3964 35.0545 11.4096C36.0088 10.5226 36.4925 9.27885 36.4925 7.71401C36.4925 6.14916 36.0088 4.90544 35.0508 4.01496C33.9807 3.03248 32.3719 2.5343 30.2691 2.5343Z" fill="white"/>
<path d="M39.5156 8.70531H45.3094C45.907 8.70531 46.3748 8.27048 46.3748 7.71502C46.3748 7.15956 45.907 6.72473 45.3094 6.72473H39.5156C38.918 6.72473 38.4502 7.15956 38.4502 7.71502C38.4502 8.27048 38.918 8.70531 39.5156 8.70531Z" fill="white"/>
<path d="M45.9602 2.53436H39.5156C38.918 2.53436 38.4502 2.96658 38.4502 3.51771C38.4502 4.06883 38.918 4.50105 39.5156 4.50105H45.9593C46.5569 4.50105 47.0247 4.06883 47.0247 3.51771C47.0256 2.96658 46.5578 2.53436 45.9602 2.53436Z" fill="white"/>
<path d="M45.9602 10.9288H39.5156C38.918 10.9288 38.4502 11.361 38.4502 11.9121C38.4502 12.4641 38.918 12.8955 39.5156 12.8955H45.9593C46.5569 12.8955 47.0247 12.4632 47.0247 11.9121C47.0256 11.361 46.5578 10.9288 45.9602 10.9288Z" fill="white"/>
<path d="M56.0198 3.08896C55.3009 2.72096 54.425 2.53436 53.4166 2.53436H50.1943C49.5967 2.53436 49.1289 2.96658 49.1289 3.51771C49.1289 4.06883 49.5967 4.50105 50.1943 4.50105H53.4166C54.0571 4.50105 54.5903 4.60781 55.0002 4.81871C55.4073 5.02788 55.5726 5.30127 55.5726 5.7604C55.5726 6.22039 55.4073 6.49291 54.9909 6.70729C54.5819 6.9234 54.0515 7.03276 53.4156 7.03276H50.1933C49.5957 7.03276 49.1279 7.46151 49.1279 8.01003V11.9052C49.1279 12.4607 49.5929 12.8955 50.1858 12.8955C50.7788 12.8955 51.2438 12.4607 51.2438 11.9052V9.00032H53.4147C54.4269 9.00032 55.3065 8.80764 56.017 8.43357C57.1188 7.87116 57.7024 6.94683 57.7024 5.7604C57.7034 4.57483 57.1207 3.65137 56.0198 3.08896Z" fill="white"/>
<path d="M66.8099 10.929H61.4166V3.52569C61.4166 2.97022 60.9554 2.5354 60.3662 2.5354C59.7686 2.5354 59.3008 2.97022 59.3008 3.52569V11.9063C59.3008 12.1146 59.3708 12.3081 59.4885 12.4669V12.7212H59.762C59.9339 12.8315 60.1421 12.8957 60.3662 12.8957H66.8099C67.4075 12.8957 67.8753 12.4635 67.8753 11.9123C67.8753 11.3612 67.4075 10.929 66.8099 10.929Z" fill="white"/>
<path d="M74.8783 3.13235L74.8521 3.08028C74.6691 2.74353 74.3003 2.53436 73.8904 2.53436C73.487 2.53436 73.1238 2.7444 72.9417 3.08375L69.0901 11.4591C69.0097 11.5945 68.9668 11.7473 68.9668 11.9052C68.9668 12.4607 69.4346 12.8955 70.0322 12.8955C70.4337 12.8955 70.796 12.6863 70.9799 12.3505L73.8923 6.02858L76.7896 12.3001L76.813 12.347C76.9951 12.6855 77.3592 12.8964 77.7626 12.8964C78.3602 12.8964 78.828 12.4616 78.828 11.9061C78.828 11.749 78.786 11.598 78.7066 11.4626L74.8783 3.13235Z" fill="white"/>
<path d="M87.9348 2.53436C87.3373 2.53436 86.8695 2.96919 86.8695 3.52465V8.82847L82.3511 2.9553C82.1522 2.69145 81.8319 2.53523 81.4902 2.53523C80.8926 2.53523 80.4248 2.97005 80.4248 3.52552V11.9061C80.4248 12.4616 80.8898 12.8964 81.4837 12.8964C82.0766 12.8964 82.5416 12.4616 82.5416 11.9061V6.60227L87.059 12.4746C87.2579 12.7384 87.5828 12.8955 87.9348 12.8955C88.5324 12.8955 89.0002 12.4607 89.0002 11.9052V3.52465C89.0002 2.96919 88.5324 2.53436 87.9348 2.53436Z" fill="white"/>
<path d="M14.3717 7.84351C10.6405 7.8409 7.61328 10.6512 7.61328 14.1194V16.7266C7.61328 17.2925 8.10723 17.7507 8.71509 17.7507C9.32389 17.7507 9.8169 17.2925 9.8169 16.7266V14.0673C9.8169 11.7604 11.8235 9.88831 14.3054 9.8805H14.3539C15.1252 9.8779 15.6247 9.46737 15.6257 8.86851C15.6285 8.2575 15.1429 7.84698 14.3717 7.84351Z" fill="white"/>
<path d="M12.6288 0C5.65377 0 0 5.25521 0 11.7385V16.6283C0 17.1448 0.450061 17.5631 1.00563 17.5631C1.56121 17.5631 2.0122 17.1448 2.0122 16.6283V11.5701C2.0122 6.31233 6.62299 2.06216 12.2796 2.10556L16.4422 2.13767C16.5832 2.1151 16.7372 2.11424 16.9016 2.14461C17.191 2.19669 17.4721 2.26005 17.7457 2.33555C18.1136 2.41714 18.4254 2.51695 18.6476 2.64106C20.1276 3.23645 21.3023 4.23021 22.1025 5.65445C22.7944 6.88689 23.0652 8.18702 22.9615 9.43335C22.955 11.9555 20.8737 13.8597 19.4339 14.7858C19.2238 15.0323 18.2116 15.3872 17.8951 15.4975C17.3077 15.7023 16.6887 15.8177 16.0631 15.8576L15.8212 15.8733C15.5243 15.8924 15.2246 15.901 14.9323 15.8481C14.641 15.7943 14.3562 15.6736 14.1592 15.4662C13.922 15.2163 13.837 14.8491 13.9426 14.5306C14.2357 13.6497 15.3824 13.864 16.1303 13.746C17.0323 13.6037 17.9305 13.2478 18.6775 12.7583C19.2088 12.4103 19.6766 11.9772 20.0408 11.4755C20.2658 11.1674 20.4554 10.8333 20.5861 10.4809C20.6122 10.4098 20.6384 10.3377 20.6561 10.2639C20.7784 9.77791 20.9017 9.12524 20.898 8.88483C20.8783 7.63243 20.3807 6.38958 19.4516 5.47393C17.3059 3.36143 13.3608 3.55237 10.5606 4.07051C8.95827 4.36734 7.46429 5.10159 6.29338 6.15958C4.65094 7.64371 3.70973 9.71368 3.70973 11.8418V16.775C3.70973 17.2611 4.09163 17.695 4.61266 17.741C5.21025 17.794 5.7126 17.3591 5.7126 16.8149C5.7126 16.8149 5.7126 12.6854 5.7126 12.6846C5.7126 9.52361 8.16366 6.7515 11.4822 6.10056C12.5177 5.89747 13.7231 5.92698 14.7876 5.93566C15.8604 5.94434 17.0229 6.13875 17.8157 6.86432C18.5627 7.54824 18.8867 8.53332 18.6635 9.48716C18.4179 10.5356 17.5458 11.3315 16.4515 11.6326C16.0295 11.7489 15.6289 11.7481 15.2152 11.7472C15.063 11.7472 14.909 11.7463 14.7521 11.7515C14.0649 11.775 13.3982 12.0319 12.8604 12.4224C11.7968 13.1931 11.3804 14.5271 11.8099 15.6736C12.9229 18.6532 17.5356 17.8938 19.8438 16.7993C25.7637 13.9925 26.4976 7.21583 23.1044 3.45082C21.4685 1.63602 19.517 0.50339 17.0239 0.105885C16.5738 0.0338486 16.1228 0.00520748 15.6718 0H12.6288Z" fill="white"/>
<path d="M28.945 16.024L29.65 17.7503V17.7668H29.3727L29.1766 17.2695H28.3783L28.184 17.7668H27.917V17.7503L28.621 16.024H28.945ZM28.4586 17.0647H29.0944L28.777 16.2575L28.4586 17.0647Z" fill="white"/>
<path d="M33.6215 16.8018V17.6514C33.5076 17.7018 33.4012 17.7391 33.3003 17.7634C33.2004 17.7877 33.0837 17.7999 32.9502 17.7999C32.7438 17.7999 32.5739 17.7617 32.4404 17.6844C32.3078 17.6072 32.2097 17.5013 32.1481 17.3668C32.0865 17.2322 32.0557 17.076 32.0557 16.899C32.0557 16.6907 32.0958 16.5197 32.177 16.3843C32.2583 16.2489 32.3666 16.15 32.5011 16.0875C32.6355 16.025 32.7858 15.9929 32.9493 15.9929C33.0706 15.9929 33.1827 16.0067 33.2845 16.0328C33.3872 16.0597 33.4833 16.0996 33.5739 16.1508L33.4581 16.3392C33.3909 16.2992 33.3171 16.268 33.2368 16.2437C33.1565 16.2194 33.0678 16.2072 32.9689 16.2072C32.7513 16.2072 32.5916 16.268 32.4899 16.3886C32.389 16.5093 32.3377 16.6759 32.3377 16.8877C32.3377 17.1099 32.3862 17.2817 32.4824 17.4023C32.5786 17.523 32.7364 17.5837 32.9539 17.5837C33.0884 17.5837 33.2219 17.5612 33.3536 17.5169V17.0118H32.8736L32.9026 16.8018H33.6215Z" fill="white"/>
<path d="M36.605 17.5568H37.5247V17.7669H36.3389V16.0241H37.5107V16.2341H36.605V16.7775H37.3977L37.3688 16.9823H36.605V17.5568Z" fill="white"/>
<path d="M41.7604 16.0242V17.767H41.4654L40.6409 16.6378L40.6035 16.5866C40.5998 16.5796 40.5877 16.5623 40.5671 16.5354C40.5466 16.5085 40.5298 16.4833 40.5148 16.4599C40.4999 16.4364 40.4868 16.413 40.4756 16.3896V17.7661H40.2207V16.0233H40.5008L41.3487 17.1768C41.3561 17.1872 41.3729 17.2098 41.3981 17.2427C41.4234 17.2757 41.4439 17.3061 41.4616 17.3339C41.4794 17.3616 41.4934 17.3885 41.5055 17.4137V16.0233H41.7604V16.0242Z" fill="white"/>
<path d="M44.8214 17.6889C44.6925 17.6151 44.5963 17.511 44.5338 17.3773C44.4712 17.2428 44.4395 17.084 44.4395 16.9017C44.4395 16.6899 44.4796 16.5163 44.559 16.381C44.6393 16.2456 44.7438 16.1466 44.8727 16.085C45.0016 16.0234 45.1435 15.9921 45.2976 15.9921C45.4152 15.9921 45.5235 16.006 45.6234 16.0321C45.7233 16.059 45.8176 16.0989 45.9082 16.1501L45.7924 16.3384C45.6421 16.2508 45.4806 16.2065 45.3088 16.2065C45.108 16.2065 44.9605 16.2673 44.8652 16.3896C44.77 16.5111 44.7224 16.6778 44.7224 16.8869C44.7224 17.1039 44.7728 17.274 44.8727 17.3981C44.9726 17.5223 45.1211 17.5839 45.3153 17.5839C45.4133 17.5839 45.502 17.5726 45.5814 17.5492C45.6608 17.5257 45.7392 17.4927 45.8186 17.4494L45.926 17.6299C45.8232 17.6854 45.7243 17.728 45.6262 17.7566C45.5291 17.7852 45.4208 17.8 45.3041 17.8C45.1117 17.7991 44.9502 17.7627 44.8214 17.6889Z" fill="white"/>
<path d="M49.9621 16.0241V16.0406L49.2674 17.0864V17.7669H49.0013V17.0786L48.3271 16.0406V16.0241H48.6194L49.1432 16.8608L49.6876 16.0241H49.9621Z" fill="white"/>
</svg>
